<?xml version='1.0' encoding='UTF-8' standalone='no'?>
<!-- Created with Fritzing (https://fritzing.org/) -->
<svg xmlns="http://www.w3.org/2000/svg" height="2.638in" xmlns:svg="http://www.w3.org/2000/svg" baseProfile="tiny" version="1.2" y="0in" width="3.53472in"  viewBox="0 0 254.5 189.936" x="0in">
 <g partID="57820">
  <g id="board" >
   <rect stroke-width="0.5" id="boardoutline" height="189.36" width="253.924" y="0.288" fill="none" stroke="black"  x="0.288" fill-opacity="0.5"/>
  </g>
 </g>
 <g partID="854776560">
  <g transform="translate(168.81,9.73199)">
   <g transform="matrix(0,1,-1,0,0,0)">
    <g id="copper0" flipped="1">
     <g transform="matrix(-1, 0, 0, 1, 162.451, 0)">
      <g>
       <g>
        <g gorn="0.3">
         <g id="copper0" gorn="0.3.0">
          <circle connectorname="P$1" stroke-width="1.44" id="0" r="4.2633" fill="none" stroke="black" cx="8.48973" cy="57.6" gorn="0.3.0.0"/>
          <circle connectorname="GND" stroke-width="2.14441" id="1" r="2.3478" fill="none" stroke="black" cx="8.50391" cy="22.1953" gorn="0.3.0.1"/>
          <rect stroke-width="2.14441" height="4.69559" id="2" width="4.69558" y="19.8474" fill="none" stroke="black" x="6.15613"/>
          <circle connectorname="GND" stroke-width="0.719999" id="3" r="1.49386" fill="none" stroke="black" cx="16.4409" cy="23.0457" gorn="0.3.0.3"/>
          <path stroke-width="0" id="4" fill="black" stroke="none" d="m14.9471,20.058,2.98771,0,0,4.48158,-2.98771,0,0,-4.48158M14.9471,23.0457a1.49386,1.49386,0,1,0,2.98771,0,1.49386,1.49386,0,1,0,-2.98771,0zz"/>
          <g connectorname="IO21" stroke-width="0.95641" id="5" r="1.7538" fill="none" stroke="black" cx="127.29" cy="61.2" gorn="0.3.0.5"/>
          <g connectorname="IO17" stroke-width="0.95641" id="6" r="1.7538" fill="none" stroke="black" cx="120.09" cy="61.2" gorn="0.3.0.6"/>
          <g connectorname="IO16" stroke-width="0.95641" id="7" r="1.7538" fill="none" stroke="black" cx="112.89" cy="61.2" gorn="0.3.0.7"/>
          <g connectorname="MISO" stroke-width="0.95641" id="8" r="1.7538" fill="none" stroke="black" cx="105.69" cy="61.2" gorn="0.3.0.8"/>
          <g connectorname="MOSI" stroke-width="0.95641" id="9" r="1.7538" fill="none" stroke="black" cx="98.4893" cy="61.2" gorn="0.3.0.9"/>
          <g connectorname="SCK" stroke-width="0.95641" id="10" r="1.7538" fill="none" stroke="black" cx="91.2893" cy="61.2" gorn="0.3.0.10"/>
          <g connectorname="A5_IO4" stroke-width="0.95641" id="11" r="1.7538" fill="none" stroke="black" cx="84.0894" cy="61.2" gorn="0.3.0.11"/>
          <g connectorname="A4_IO36" stroke-width="0.95641" id="12" r="1.7538" fill="none" stroke="black" cx="76.8894" cy="61.2" gorn="0.3.0.12"/>
          <g connectorname="A3_I39" stroke-width="0.95641" id="13" r="1.7538" fill="none" stroke="black" cx="69.6896" cy="61.2" gorn="0.3.0.13"/>
          <circle connectorname="P$1" stroke-width="1.44" id="14" r="4.2633" fill="none" stroke="black" cx="8.48973" cy="7.2" gorn="0.3.0.14"/>
          <g connectorname="A2_I34" stroke-width="0.95641" id="15" r="1.7538" fill="none" stroke="black" cx="62.4896" cy="61.2" gorn="0.3.0.15"/>
          <g connectorname="A1_DAC1" stroke-width="0.95641" id="16" r="1.7538" fill="none" stroke="black" cx="55.2896" cy="61.2" gorn="0.3.0.16"/>
          <g connectorname="A0_DAC2" stroke-width="0.95641" id="17" r="1.7538" fill="none" stroke="black" cx="48.0896" cy="61.2" gorn="0.3.0.17"/>
          <g connectorname="GND" stroke-width="0.95641" id="18" r="1.7538" fill="none" stroke="black" cx="40.8896" cy="61.2" gorn="0.3.0.18"/>
          <g connectorname="14" stroke-width="0.95641" id="19" r="1.7538" fill="none" stroke="black" cx="33.6896" cy="61.2" gorn="0.3.0.19"/>
          <g connectorname="3.3V" stroke-width="0.95641" id="20" r="1.7538" fill="none" stroke="black" cx="26.4897" cy="61.2" gorn="0.3.0.20"/>
          <g connectorname="RESET" stroke-width="0.95641" id="21" r="1.7538" fill="none" stroke="black" cx="19.2897" cy="61.2" gorn="0.3.0.21"/>
          <g connectorname="VBAT" stroke-width="0.95641" id="22" r="1.7538" fill="none" stroke="black" cx="48.0896" cy="3.6" gorn="0.3.0.22"/>
          <g connectorname="EN" stroke-width="0.95641" id="23" r="1.7538" fill="none" stroke="black" cx="55.2896" cy="3.6" gorn="0.3.0.23"/>
          <g connectorname="VBUS" stroke-width="0.95641" id="24" r="1.7538" fill="none" stroke="black" cx="62.4896" cy="3.6" gorn="0.3.0.24"/>
          <g connectorname="IO13_A12" stroke-width="0.95641" id="25" r="1.7538" fill="none" stroke="black" cx="69.6896" cy="3.6" gorn="0.3.0.25"/>
          <g connectorname="IO12_A11" stroke-width="0.95641" id="26" r="1.7538" fill="none" stroke="black" cx="76.8894" cy="3.6" gorn="0.3.0.26"/>
          <g connectorname="IO27_A10" stroke-width="0.95641" id="27" r="1.7538" fill="none" stroke="black" cx="84.0894" cy="3.6" gorn="0.3.0.27"/>
          <g connectorname="IO33_A9" stroke-width="0.95641" id="28" r="1.7538" fill="none" stroke="black" cx="91.2893" cy="3.6" gorn="0.3.0.28"/>
          <g connectorname="IO15_A8" stroke-width="0.95641" id="29" r="1.7538" fill="none" stroke="black" cx="98.4893" cy="3.6" gorn="0.3.0.29"/>
          <g connectorname="IO32_A7" stroke-width="0.95641" id="30" r="1.7538" fill="none" stroke="black" cx="105.69" cy="3.6" gorn="0.3.0.30"/>
          <g connectorname="IO14_A6" stroke-width="0.95641" id="31" r="1.7538" fill="none" stroke="black" cx="112.89" cy="3.6" gorn="0.3.0.31"/>
          <g connectorname="SCL" stroke-width="0.95641" id="32" r="1.7538" fill="none" stroke="black" cx="120.09" cy="3.6" gorn="0.3.0.32"/>
          <g connectorname="SDA" stroke-width="0.95641" id="33" r="1.7538" fill="none" stroke="black" cx="127.29" cy="3.6" gorn="0.3.0.33"/>
          <circle connectorname="GND" stroke-width="0.719999" id="34" r="1.49386" fill="none" stroke="black" cx="16.4409" cy="41.7543" gorn="0.3.0.34"/>
          <path stroke-width="0" id="35" fill="black" stroke="none" d="m14.9471,40.2605,2.98771,0,0,4.48158,-2.98771,0,0,-4.48158M14.9471,41.7543a1.49386,1.49386,0,1,0,2.98771,0,1.49386,1.49386,0,1,0,-2.98771,0zz"/>
          <circle connectorname="GND" stroke-width="2.14441" id="36" r="2.3478" fill="none" stroke="black" cx="8.50391" cy="42.6047" gorn="0.3.0.36"/>
          <rect stroke-width="2.14441" height="4.69559" id="37" width="4.69558" y="40.2569" fill="none" stroke="black" x="6.15613"/>
         </g>
        </g>
        <g gorn="0.3.0">
         <circle connectorname="P$1" stroke-width="1.44" id="38" r="4.2633" fill="none" stroke="black" cx="8.48973" cy="57.6" gorn="0.3.0.0"/>
         <circle connectorname="GND" stroke-width="2.14441" id="39" r="2.3478" fill="none" stroke="black" cx="8.50391" cy="22.1953" gorn="0.3.0.1"/>
         <rect stroke-width="2.14441" height="4.69559" id="40" width="4.69558" y="19.8474" fill="none" stroke="black" x="6.15613"/>
         <circle connectorname="GND" stroke-width="0.719999" id="41" r="1.49386" fill="none" stroke="black" cx="16.4409" cy="23.0457" gorn="0.3.0.3"/>
         <path stroke-width="0" id="42" fill="black" stroke="none" d="m14.9471,20.058,2.98771,0,0,4.48158,-2.98771,0,0,-4.48158M14.9471,23.0457a1.49386,1.49386,0,1,0,2.98771,0,1.49386,1.49386,0,1,0,-2.98771,0zz"/>
         <g connectorname="IO21" stroke-width="0.95641" id="43" r="1.7538" fill="none" stroke="black" cx="127.29" cy="61.2" gorn="0.3.0.5"/>
         <g connectorname="IO17" stroke-width="0.95641" id="44" r="1.7538" fill="none" stroke="black" cx="120.09" cy="61.2" gorn="0.3.0.6"/>
         <g connectorname="IO16" stroke-width="0.95641" id="45" r="1.7538" fill="none" stroke="black" cx="112.89" cy="61.2" gorn="0.3.0.7"/>
         <g connectorname="MISO" stroke-width="0.95641" id="46" r="1.7538" fill="none" stroke="black" cx="105.69" cy="61.2" gorn="0.3.0.8"/>
         <g connectorname="MOSI" stroke-width="0.95641" id="47" r="1.7538" fill="none" stroke="black" cx="98.4893" cy="61.2" gorn="0.3.0.9"/>
         <g connectorname="SCK" stroke-width="0.95641" id="48" r="1.7538" fill="none" stroke="black" cx="91.2893" cy="61.2" gorn="0.3.0.10"/>
         <g connectorname="A5_IO4" stroke-width="0.95641" id="49" r="1.7538" fill="none" stroke="black" cx="84.0894" cy="61.2" gorn="0.3.0.11"/>
         <g connectorname="A4_IO36" stroke-width="0.95641" id="50" r="1.7538" fill="none" stroke="black" cx="76.8894" cy="61.2" gorn="0.3.0.12"/>
         <g connectorname="A3_I39" stroke-width="0.95641" id="51" r="1.7538" fill="none" stroke="black" cx="69.6896" cy="61.2" gorn="0.3.0.13"/>
         <circle connectorname="P$1" stroke-width="1.44" id="52" r="4.2633" fill="none" stroke="black" cx="8.48973" cy="7.2" gorn="0.3.0.14"/>
         <g connectorname="A2_I34" stroke-width="0.95641" id="53" r="1.7538" fill="none" stroke="black" cx="62.4896" cy="61.2" gorn="0.3.0.15"/>
         <g connectorname="A1_DAC1" stroke-width="0.95641" id="54" r="1.7538" fill="none" stroke="black" cx="55.2896" cy="61.2" gorn="0.3.0.16"/>
         <g connectorname="A0_DAC2" stroke-width="0.95641" id="55" r="1.7538" fill="none" stroke="black" cx="48.0896" cy="61.2" gorn="0.3.0.17"/>
         <g connectorname="GND" stroke-width="0.95641" id="56" r="1.7538" fill="none" stroke="black" cx="40.8896" cy="61.2" gorn="0.3.0.18"/>
         <g connectorname="14" stroke-width="0.95641" id="57" r="1.7538" fill="none" stroke="black" cx="33.6896" cy="61.2" gorn="0.3.0.19"/>
         <g connectorname="3.3V" stroke-width="0.95641" id="58" r="1.7538" fill="none" stroke="black" cx="26.4897" cy="61.2" gorn="0.3.0.20"/>
         <g connectorname="RESET" stroke-width="0.95641" id="59" r="1.7538" fill="none" stroke="black" cx="19.2897" cy="61.2" gorn="0.3.0.21"/>
         <g connectorname="VBAT" stroke-width="0.95641" id="60" r="1.7538" fill="none" stroke="black" cx="48.0896" cy="3.6" gorn="0.3.0.22"/>
         <g connectorname="EN" stroke-width="0.95641" id="61" r="1.7538" fill="none" stroke="black" cx="55.2896" cy="3.6" gorn="0.3.0.23"/>
         <g connectorname="VBUS" stroke-width="0.95641" id="62" r="1.7538" fill="none" stroke="black" cx="62.4896" cy="3.6" gorn="0.3.0.24"/>
         <g connectorname="IO13_A12" stroke-width="0.95641" id="63" r="1.7538" fill="none" stroke="black" cx="69.6896" cy="3.6" gorn="0.3.0.25"/>
         <g connectorname="IO12_A11" stroke-width="0.95641" id="64" r="1.7538" fill="none" stroke="black" cx="76.8894" cy="3.6" gorn="0.3.0.26"/>
         <g connectorname="IO27_A10" stroke-width="0.95641" id="65" r="1.7538" fill="none" stroke="black" cx="84.0894" cy="3.6" gorn="0.3.0.27"/>
         <g connectorname="IO33_A9" stroke-width="0.95641" id="66" r="1.7538" fill="none" stroke="black" cx="91.2893" cy="3.6" gorn="0.3.0.28"/>
         <g connectorname="IO15_A8" stroke-width="0.95641" id="67" r="1.7538" fill="none" stroke="black" cx="98.4893" cy="3.6" gorn="0.3.0.29"/>
         <g connectorname="IO32_A7" stroke-width="0.95641" id="68" r="1.7538" fill="none" stroke="black" cx="105.69" cy="3.6" gorn="0.3.0.30"/>
         <g connectorname="IO14_A6" stroke-width="0.95641" id="69" r="1.7538" fill="none" stroke="black" cx="112.89" cy="3.6" gorn="0.3.0.31"/>
         <g connectorname="SCL" stroke-width="0.95641" id="70" r="1.7538" fill="none" stroke="black" cx="120.09" cy="3.6" gorn="0.3.0.32"/>
         <g connectorname="SDA" stroke-width="0.95641" id="71" r="1.7538" fill="none" stroke="black" cx="127.29" cy="3.6" gorn="0.3.0.33"/>
         <circle connectorname="GND" stroke-width="0.719999" id="72" r="1.49386" fill="none" stroke="black" cx="16.4409" cy="41.7543" gorn="0.3.0.34"/>
         <path stroke-width="0" id="73" fill="black" stroke="none" d="m14.9471,40.2605,2.98771,0,0,4.48158,-2.98771,0,0,-4.48158M14.9471,41.7543a1.49386,1.49386,0,1,0,2.98771,0,1.49386,1.49386,0,1,0,-2.98771,0zz"/>
         <circle connectorname="GND" stroke-width="2.14441" id="74" r="2.3478" fill="none" stroke="black" cx="8.50391" cy="42.6047" gorn="0.3.0.36"/>
         <rect stroke-width="2.14441" height="4.69559" id="75" width="4.69558" y="40.2569" fill="none" stroke="black" x="6.15613"/>
        </g>
       </g>
      </g>
     </g>
    </g>
   </g>
  </g>
 </g>
 <g partID="854583710">
  <g transform="translate(156.57,69.3733)">
   <g transform="matrix(-1,0,0,-1,0,0)">
    <g id="copper0" >
     <g stroke-width="1.44" height="4.464" id="76" width="4.464" y="12.168" fill="none" stroke="black"  x="6.408"/>
     <g stroke-width="1.44" id="77" r="2.232" fill="none" stroke="black"  cx="8.64" cy="14.4"/>
     <g stroke-width="1.44" id="78" r="2.232" fill="none" stroke="black"  cx="15.84" cy="14.4"/>
     <g stroke-width="1.44" id="79" r="2.232" fill="none" stroke="black"  cx="23.04" cy="14.4"/>
    </g>
   </g>
  </g>
 </g>
 <g partID="854590420">
  <g transform="translate(113.37,73.6933)">
   <g id="copper0" >
    <g stroke-width="1.44" height="4.464" id="80" width="4.464" y="12.168" fill="none" stroke="black"  x="6.408"/>
    <g stroke-width="1.44" id="81" r="2.232" fill="none" stroke="black"  cx="8.64" cy="14.4"/>
    <g stroke-width="1.44" id="82" r="2.232" fill="none" stroke="black"  cx="15.84" cy="14.4"/>
    <g stroke-width="1.44" id="83" r="2.232" fill="none" stroke="black"  cx="23.04" cy="14.4"/>
   </g>
  </g>
 </g>
 <g partID="854777440">
  <g transform="translate(119.459,98.6666)">
   <g id="copper0" flipped="1">
    <g transform="matrix(-1, 0, 0, 1, 17.5748, 0)">
     <g>
      <g>
       <g>
        <rect connectorname="1" stroke-width="0" id="84" height="7.65353" y="0" width="5.10235" stroke-linecap="round" stroke="none" fill="black" x="0"/>
        <rect connectorname="2" stroke-width="0" id="85" height="7.65353" y="0" width="5.10235" stroke-linecap="round" stroke="none" fill="black" x="12.4724"/>
        <g id="86"/>
       </g>
       <g id="87"/>
      </g>
     </g>
    </g>
   </g>
  </g>
 </g>
 <g partID="854736020">
  <g transform="translate(174.57,90.2533)">
   <g id="copper0" >
    <g stroke-width="1.44" id="88" r="2.088" fill="none" stroke="black"  cx="5.04" cy="5.04"/>
    <g stroke-width="1.44" id="89" r="2.088" fill="none" stroke="black"  cx="5.04" cy="12.24"/>
    <g stroke-width="1.44" id="90" r="2.088" fill="none" stroke="black"  cx="5.04" cy="19.44"/>
    <g stroke-width="1.44" id="91" r="2.088" fill="none" stroke="black"  cx="5.04" cy="26.64"/>
   </g>
  </g>
 </g>
 <g partID="854754590">
  <g transform="translate(90.3297,74.4133)">
   <g transform="matrix(-1,0,0,-1,0,0)">
    <g id="copper0" >
     <g id="copper1" >
      <g id="connector0pin" >
       <g stroke-width="1.44" id="92" height="4.32" y="5.76" width="4.319" fill="none" stroke="black"  x="2.16"/>
       <g stroke-width="1.44" id="93" r="2.16" fill="none" stroke="black"  cx="4.32" cy="7.92"/>
      </g>
      <g stroke-width="1.44" id="94" r="2.16" fill="none" stroke="black"  cx="4.32" cy="22.32"/>
     </g>
    </g>
   </g>
  </g>
 </g>
 <g partID="854755430">
  <g transform="translate(205.53,67.2133)">
   <g transform="matrix(-1,0,0,-1,0,0)">
    <g id="copper0" >
     <g id="copper1" >
      <g id="connector0pin" >
       <g stroke-width="1.44" id="95" height="4.32" y="5.76" width="4.319" fill="none" stroke="black"  x="2.16"/>
       <g stroke-width="1.44" id="96" r="2.16" fill="none" stroke="black"  cx="4.32" cy="7.92"/>
      </g>
      <g stroke-width="1.44" id="97" r="2.16" fill="none" stroke="black"  cx="4.32" cy="22.32"/>
     </g>
    </g>
   </g>
  </g>
 </g>
 <g partID="854755810">
  <g transform="translate(151.53,4.57335)">
   <g transform="matrix(0,1,-1,0,0,0)">
    <g id="copper0" >
     <g id="copper1" >
      <g id="connector0pin" >
       <g stroke-width="1.44" id="98" height="4.32" y="5.76" width="4.319" fill="none" stroke="black"  x="2.16"/>
       <g stroke-width="1.44" id="99" r="2.16" fill="none" stroke="black"  cx="4.32" cy="7.92"/>
      </g>
      <g stroke-width="1.44" id="100" r="2.16" fill="none" stroke="black"  cx="4.32" cy="22.32"/>
     </g>
    </g>
   </g>
  </g>
 </g>
 <g partID="854759130">
  <g transform="translate(96.5087,175.321)">
   <g transform="matrix(-1,0,0,-1,0,0)">
    <g id="copper0" >
     <g id="copper1" >
      <g id="connector0pin" >
       <g stroke-width="1.44" id="101" height="4.32" y="5.76" width="4.319" fill="none" stroke="black"  x="2.16"/>
       <g stroke-width="1.44" id="102" r="2.16" fill="none" stroke="black"  cx="4.32" cy="7.92"/>
      </g>
      <g stroke-width="1.44" id="103" r="2.16" fill="none" stroke="black"  cx="4.32" cy="22.32"/>
     </g>
    </g>
   </g>
  </g>
 </g>
 <g partID="854759150">
  <g transform="translate(205.53,160.813)">
   <g transform="matrix(-1,0,0,-1,0,0)">
    <g id="copper0" >
     <g id="copper1" >
      <g id="connector0pin" >
       <g stroke-width="1.44" id="104" height="4.32" y="5.76" width="4.319" fill="none" stroke="black"  x="2.16"/>
       <g stroke-width="1.44" id="105" r="2.16" fill="none" stroke="black"  cx="4.32" cy="7.92"/>
      </g>
      <g stroke-width="1.44" id="106" r="2.16" fill="none" stroke="black"  cx="4.32" cy="22.32"/>
     </g>
    </g>
   </g>
  </g>
 </g>
 <g partID="854777420">
  <g transform="translate(121.556,152.922)">
   <g transform="matrix(0,-1,1,0,0,0)">
    <g id="copper0" flipped="1">
     <g transform="matrix(-1, 0, 0, 1, 14.4567, 0)">
      <g>
       <g>
        <g>
         <rect stroke-width="0" height="5.38583" id="107" width="4.53543" y="0.566929" stroke="none" fill="black" x="0.566929" fill-opacity="1"/>
         <rect stroke-width="0" height="5.38583" id="108" width="4.53543" y="0.566929" stroke="none" fill="black" x="9.35433" fill-opacity="1"/>
        </g>
       </g>
      </g>
     </g>
    </g>
   </g>
  </g>
 </g>
 <g partID="854777380">
  <g transform="translate(148.032,76.9532)">
   <g transform="matrix(-1,0,0,-1,0,0)">
    <g id="copper0" flipped="1">
     <g transform="matrix(-1, 0, 0, 1, 14.4567, 0)">
      <g>
       <g>
        <g>
         <rect stroke-width="0" height="5.38583" id="109" width="4.53543" y="0.566929" stroke="none" fill="black" x="0.566929" fill-opacity="1"/>
         <rect stroke-width="0" height="5.38583" id="110" width="4.53543" y="0.566929" stroke="none" fill="black" x="9.35433" fill-opacity="1"/>
        </g>
       </g>
      </g>
     </g>
    </g>
   </g>
  </g>
 </g>
 <g partID="854777400">
  <g transform="translate(149.676,131.265)">
   <g transform="matrix(0,1,-1,0,0,0)">
    <g id="copper0" flipped="1">
     <g transform="matrix(-1, 0, 0, 1, 14.4567, 0)">
      <g>
       <g>
        <g>
         <rect stroke-width="0" height="5.38583" id="111" width="4.53543" y="0.566929" stroke="none" fill="black" x="0.566929" fill-opacity="1"/>
         <rect stroke-width="0" height="5.38583" id="112" width="4.53543" y="0.566929" stroke="none" fill="black" x="9.35433" fill-opacity="1"/>
        </g>
       </g>
      </g>
     </g>
    </g>
   </g>
  </g>
 </g>
</svg>
