<?xml version="1.0" encoding="utf-8"?>
<!-- Generator: Adobe Illustrator 26.2.1, SVG Export Plug-In . SVG Version: 6.00 Build 0)  -->
<svg version="1.1" xmlns="http://www.w3.org/2000/svg" xmlns:xlink="http://www.w3.org/1999/xlink" x="0px" y="0px"
	 viewBox="0 0 193.7 141.7" style="enable-background:new 0 0 193.7 141.7;" xml:space="preserve">
<style type="text/css">
	.st0{display:none;}
	.st1{display:inline;}
	.st2{fill:#FFFFFF;}
	.st3{fill:#1D1D1B;}
</style>
<g id="Layer_2" class="st0">
	<g class="st1">
		<g id="board">
			<g id="boardoutline">
				<path class="st2" d="M0,114.5l0-87.3C0,12.2,12.7,0,28.3,0l137,0c15.7,0,28.3,12.2,28.3,27.2v87.3c0,15-12.7,27.2-28.3,27.2
					h-137C12.7,141.7,0,129.5,0,114.5z"/>
			</g>
		</g>
	</g>
</g>
<g id="Layer_1" xmlns:svg="http://www.w3.org/2000/svg" class="st0">
	<g class="st1">
		<g transform="translate(117.247,115.999)">
			<g transform="matrix(-1,0,0,-1,0,0)">
				<g id="copper0_00000044143836625921009310000016498881817168543653_">
					<path d="M3.8,80.2c0-1.5,1.3-2.8,2.8-2.8s2.8,1.3,2.8,2.8S8.1,83,6.6,83S3.8,81.8,3.8,80.2z M7.9,80.2c0-0.8-0.6-1.4-1.4-1.4
						s-1.4,0.6-1.4,1.4s0.6,1.4,1.4,1.4S7.9,81,7.9,80.2z"/>
					<path d="M11,80.2c0-1.5,1.3-2.8,2.8-2.8s2.8,1.3,2.8,2.8S15.3,83,13.8,83S11,81.8,11,80.2z M15.1,80.2c0-0.8-0.6-1.4-1.4-1.4
						s-1.4,0.6-1.4,1.4s0.6,1.4,1.4,1.4S15.1,81,15.1,80.2z"/>
					<path d="M18.2,80.2c0-1.5,1.3-2.8,2.8-2.8s2.8,1.3,2.8,2.8S22.5,83,21,83S18.2,81.8,18.2,80.2z M22.3,80.2
						c0-0.8-0.6-1.4-1.4-1.4s-1.4,0.6-1.4,1.4s0.6,1.4,1.4,1.4S22.3,81,22.3,80.2z"/>
					<path d="M25.4,80.2c0-1.5,1.3-2.8,2.8-2.8s2.8,1.3,2.8,2.8S29.7,83,28.2,83S25.4,81.8,25.4,80.2z M29.5,80.2
						c0-0.8-0.6-1.4-1.4-1.4s-1.4,0.6-1.4,1.4s0.6,1.4,1.4,1.4S29.5,81,29.5,80.2z"/>
				</g>
			</g>
		</g>
	</g>
	<g class="st1">
		<g transform="translate(139.658,161.568)">
			<g transform="matrix(-1,0,0,-1,0,0)">
				<g id="copper0_00000025437216451110657100000007803974085060945057_">
					<g id="copper1_00000145743963500952674990000008593783177699632526_">
						<g id="connector0pin_00000076569054201683614420000011308185316981761703_">
							<path d="M-16.6,151.8v-5.8h5.8v5.8H-16.6z M-15.1,147.5v2.9h2.9v-2.9H-15.1z"/>
							<path d="M-16.6,148.9c0-1.6,1.3-2.9,2.9-2.9s2.9,1.3,2.9,2.9s-1.3,2.9-2.9,2.9S-16.6,150.5-16.6,148.9z M-12.3,148.9
								c0-0.8-0.6-1.4-1.4-1.4s-1.4,0.6-1.4,1.4s0.6,1.4,1.4,1.4S-12.3,149.7-12.3,148.9z"/>
						</g>
						<path d="M-2.2,148.9c0-1.6,1.3-2.9,2.9-2.9s2.9,1.3,2.9,2.9s-1.3,2.9-2.9,2.9S-2.2,150.5-2.2,148.9z M2.1,148.9
							c0-0.8-0.6-1.4-1.4-1.4s-1.4,0.6-1.4,1.4s0.6,1.4,1.4,1.4S2.1,149.7,2.1,148.9z"/>
					</g>
				</g>
			</g>
		</g>
	</g>
	<g class="st1">
		<g transform="translate(33.1888,175.118)">
			<g transform="matrix(-1,0,0,-1,0,0)">
				<g id="copper0_00000090976418384943778170000008420364483240738730_">
					<g id="copper1_00000046323592156746821250000005708622211145846657_">
						<g id="connector0pin_00000056398405753189036720000017585292721378964622_">
							<path d="M-136.6,58.9v-5.8h5.8v5.8H-136.6z M-135.2,54.6v2.9h2.9v-2.9H-135.2z"/>
							<path d="M-136.6,56c0-1.6,1.3-2.9,2.9-2.9s2.9,1.3,2.9,2.9s-1.3,2.9-2.9,2.9S-136.6,57.6-136.6,56z M-132.3,56
								c0-0.8-0.6-1.4-1.4-1.4s-1.4,0.6-1.4,1.4s0.6,1.4,1.4,1.4S-132.3,56.8-132.3,56z"/>
						</g>
						<path d="M-122.2,56c0-1.6,1.3-2.9,2.9-2.9s2.9,1.3,2.9,2.9s-1.3,2.9-2.9,2.9S-122.2,57.6-122.2,56z M-117.9,56
							c0-0.8-0.6-1.4-1.4-1.4s-1.4,0.6-1.4,1.4s0.6,1.4,1.4,1.4S-117.9,56.8-117.9,56z"/>
					</g>
				</g>
			</g>
		</g>
	</g>
	<g class="st1">
		<g transform="translate(87.7557,9.29682)">
			<g transform="matrix(0,1,-1,0,0,0)">
				<g id="copper0_00000140005723811675920730000003908329327250532482_">
					<g id="copper1_00000008865520861060135050000009452004814467375767_">
						<g id="connector0pin_00000021110738134292281980000000603517640866367897_">
							<path d="M56,71.5h5.8v5.8H56V71.5z M60.3,73h-2.9v2.9h2.9V73z"/>
							<path d="M58.8,71.5c1.6,0,2.9,1.3,2.9,2.9s-1.3,2.9-2.9,2.9S56,76,56,74.4S57.3,71.5,58.8,71.5z M58.8,75.9
								c0.8,0,1.4-0.6,1.4-1.4S59.6,73,58.8,73s-1.4,0.6-1.4,1.4S58,75.9,58.8,75.9z"/>
						</g>
						<path d="M73.2,71.5c1.6,0,2.9,1.3,2.9,2.9s-1.3,2.9-2.9,2.9s-2.9-1.3-2.9-2.9S71.7,71.5,73.2,71.5z M73.2,75.9
							c0.8,0,1.4-0.6,1.4-1.4S74,73,73.2,73s-1.4,0.6-1.4,1.4S72.4,75.9,73.2,75.9z"/>
					</g>
				</g>
			</g>
		</g>
	</g>
	<g class="st1">
		<g transform="translate(137.787,66.8345)">
			<g transform="matrix(-1,0,0,-1,0,0)">
				<g id="copper0_00000158749295170446654090000010446677259212971395_">
					<g id="copper1_00000079488344180513763910000016846075989419159997_">
						<g id="connector0pin_00000036950707953186836090000001609451704422220220_">
							<path d="M76.3,55.2v-5.8H82v5.8H76.3z M77.7,50.9v2.9h2.9v-2.9H77.7z"/>
							<path d="M76.3,52.3c0-1.6,1.3-2.9,2.9-2.9s2.9,1.3,2.9,2.9s-1.3,2.9-2.9,2.9S76.3,53.9,76.3,52.3z M80.6,52.3
								c0-0.8-0.6-1.4-1.4-1.4s-1.4,0.6-1.4,1.4s0.6,1.4,1.4,1.4S80.6,53.1,80.6,52.3z"/>
						</g>
						<path d="M90.7,52.3c0-1.6,1.3-2.9,2.9-2.9s2.9,1.3,2.9,2.9s-1.3,2.9-2.9,2.9S90.7,53.9,90.7,52.3z M95,52.3
							c0-0.8-0.6-1.4-1.4-1.4s-1.4,0.6-1.4,1.4s0.6,1.4,1.4,1.4S95,53.1,95,52.3z"/>
					</g>
				</g>
			</g>
		</g>
	</g>
	<g class="st1">
		<g transform="translate(34.3226,73.3541)">
			<g transform="matrix(-1,0,0,-1,0,0)">
				<g id="copper0_00000012465011571178452800000015996132036877629357_">
					<g id="copper1_00000096021281345318937030000000616006362909651118_">
						<g id="connector0pin_00000036210712649708649940000001148393986712582547_">
							<path d="M-33.7-41.7v-5.8h5.8v5.8H-33.7z M-32.3-46.1v2.9h2.9v-2.9H-32.3z"/>
							<path d="M-33.7-44.6c0-1.6,1.3-2.9,2.9-2.9c1.6,0,2.9,1.3,2.9,2.9s-1.3,2.9-2.9,2.9C-32.4-41.7-33.7-43-33.7-44.6z
								 M-29.4-44.6c0-0.8-0.6-1.4-1.4-1.4s-1.4,0.6-1.4,1.4s0.6,1.4,1.4,1.4S-29.4-43.8-29.4-44.6z"/>
						</g>
						<path d="M-19.3-44.6c0-1.6,1.3-2.9,2.9-2.9s2.9,1.3,2.9,2.9s-1.3,2.9-2.9,2.9S-19.3-43-19.3-44.6z M-15-44.6
							c0-0.8-0.6-1.4-1.4-1.4s-1.4,0.6-1.4,1.4s0.6,1.4,1.4,1.4S-15-43.8-15-44.6z"/>
					</g>
				</g>
			</g>
		</g>
	</g>
	<g class="st1">
		<g transform="translate(55.3727,134.94)">
			<g transform="matrix(0,-1,1,0,0,0)">
				<g id="copper0_00000144318589234577130540000015962538208287773838_">
					<g transform="matrix(-1, 0, 0, 1, 14.4567, 0)">
						<g>
							<g>
								<g>
									
										<rect id="connector0pad_00000072982062191659605650000011931029632331531429_" x="-33.4" y="70.4" transform="matrix(2.535182e-06 1 -1 2.535182e-06 36.5176 98.7968)" width="4.5" height="-5.4"/>
									
										<rect id="connector1pad_00000085241395447851898670000003008271235866919600_" x="-33.4" y="79.1" transform="matrix(2.535182e-06 1 -1 2.535182e-06 45.305 107.5842)" width="4.5" height="-5.4"/>
								</g>
							</g>
						</g>
					</g>
				</g>
			</g>
		</g>
	</g>
	<g transform="matrix(0,1,-1,0,0,0)" class="st1">
		<g id="copper0_00000183966173667794165960000011226435644381746878_">
			<g transform="matrix(-1, 0, 0, 1, 14.4567, 0)">
				<g>
					<g>
						<g>
							
								<rect id="connector0pad_00000050662732787289890030000011661884873785161097_" x="-56.9" y="-129.5" transform="matrix(2.535182e-06 1 -1 2.535182e-06 -187.0033 -77.4798)" width="4.3" height="-5.4"/>
							
								<rect id="connector1pad_00000036243508142071071790000017676801832696684451_" x="-56.9" y="-120.5" transform="matrix(2.535182e-06 1 -1 2.535182e-06 -177.9324 -68.409)" width="4.3" height="-5.4"/>
						</g>
					</g>
				</g>
			</g>
		</g>
	</g>
	<g class="st1">
		<g transform="translate(82.1604,77.7082)">
			<g transform="matrix(-1,0,0,-1,0,0)">
				<g id="copper0_00000126285223000490202010000013849373132951093152_">
					<g transform="matrix(-1, 0, 0, 1, 14.4567, 0)">
						<g>
							<g>
								<g>
									
										<rect id="connector0pad_00000018225048060946123970000003670388857035890839_" x="3.8" y="2.5" width="5.4" height="-4.5"/>
									
										<rect id="connector1pad_00000088837606514151022000000003406807306564627600_" x="3.8" y="11.3" width="5.4" height="-4.5"/>
								</g>
							</g>
						</g>
					</g>
				</g>
			</g>
		</g>
	</g>
	<g class="st1">
		<g transform="translate(102.938,10.487)">
			<g transform="matrix(0,1,-1,0,0,0)">
				<g id="copper0_00000056395159510266484230000010412487064615508663_">
					<g transform="matrix(-1, 0, 0, 1, 162.451, 0)">
						<g>
							<g>
								<g>
									<g id="copper0_00000098931196286854240020000003668233848619229850_">
										<path d="M70.3-66.2c-2.7,0-5,2.2-5,5s2.2,5,5,5s5-2.2,5-5S73-66.2,70.3-66.2z M70.3-57.7c-2,0-3.5-1.6-3.5-3.5
											s1.6-3.5,3.5-3.5s3.5,1.6,3.5,3.5S72.3-57.7,70.3-57.7z"/>
										<path d="M105.7-64.6c-1.9,0-3.4,1.5-3.4,3.4c0,1.9,1.5,3.4,3.4,3.4c1.9,0,3.4-1.5,3.4-3.4
											C109.1-63.1,107.6-64.6,105.7-64.6z M105.7-59.9c-0.7,0-1.3-0.6-1.3-1.3c0-0.7,0.6-1.3,1.3-1.3c0.7,0,1.3,0.6,1.3,1.3
											C107-60.5,106.4-59.9,105.7-59.9z"/>
										<path d="M109.1-64.6h-6.8v6.8h6.8V-64.6z M104.4-62.5h2.6v2.6h-2.6V-62.5z"/>
										<path d="M104.9-55.1c-1,0-1.9,0.8-1.9,1.9s0.8,1.9,1.9,1.9c1,0,1.9-0.8,1.9-1.9S105.9-55.1,104.9-55.1z M104.9-52.1
											c-0.6,0-1.1-0.5-1.1-1.1s0.5-1.1,1.1-1.1s1.1,0.5,1.1,1.1S105.5-52.1,104.9-52.1z"/>
										<path d="M107.8-54.8v3h-4.5v-3H107.8 M104.9-54.8c-0.8,0-1.5,0.7-1.5,1.5c0,0.8,0.7,1.5,1.5,1.5c0,0,0,0,0,0
											c0.8,0,1.5-0.7,1.5-1.5C106.4-54.1,105.7-54.8,104.9-54.8C104.9-54.8,104.9-54.8,104.9-54.8z"/>
										<path d="M66.7,55.3c-1.2,0-2.2,1-2.2,2.2s1,2.2,2.2,2.2c1.2,0,2.2-1,2.2-2.2S67.9,55.3,66.7,55.3z M66.7,58.9
											c-0.7,0-1.3-0.6-1.3-1.3s0.6-1.3,1.3-1.3c0.7,0,1.3,0.6,1.3,1.3S67.4,58.9,66.7,58.9z"/>
										<path d="M66.7,48.1c-1.2,0-2.2,1-2.2,2.2s1,2.2,2.2,2.2c1.2,0,2.2-1,2.2-2.2S67.9,48.1,66.7,48.1z M66.7,51.7
											c-0.7,0-1.3-0.6-1.3-1.3s0.6-1.3,1.3-1.3c0.7,0,1.3,0.6,1.3,1.3S67.4,51.7,66.7,51.7z"/>
										<path d="M66.7,40.9c-1.2,0-2.2,1-2.2,2.2c0,1.2,1,2.2,2.2,2.2c1.2,0,2.2-1,2.2-2.2C68.9,41.9,67.9,40.9,66.7,40.9z
											 M66.7,44.5c-0.7,0-1.3-0.6-1.3-1.3c0-0.7,0.6-1.3,1.3-1.3c0.7,0,1.3,0.6,1.3,1.3C68,43.9,67.4,44.5,66.7,44.5z"/>
										<path d="M66.7,33.7c-1.2,0-2.2,1-2.2,2.2s1,2.2,2.2,2.2c1.2,0,2.2-1,2.2-2.2S67.9,33.7,66.7,33.7z M66.7,37.3
											c-0.7,0-1.3-0.6-1.3-1.3s0.6-1.3,1.3-1.3c0.7,0,1.3,0.6,1.3,1.3S67.4,37.3,66.7,37.3z"/>
										<path d="M66.7,26.5c-1.2,0-2.2,1-2.2,2.2s1,2.2,2.2,2.2c1.2,0,2.2-1,2.2-2.2S67.9,26.5,66.7,26.5z M66.7,30.1
											c-0.7,0-1.3-0.6-1.3-1.3s0.6-1.3,1.3-1.3c0.7,0,1.3,0.6,1.3,1.3S67.4,30.1,66.7,30.1z"/>
										<path d="M66.7,19.3c-1.2,0-2.2,1-2.2,2.2c0,1.2,1,2.2,2.2,2.2c1.2,0,2.2-1,2.2-2.2C68.9,20.3,67.9,19.3,66.7,19.3z
											 M66.7,22.9c-0.7,0-1.3-0.6-1.3-1.3c0-0.7,0.6-1.3,1.3-1.3c0.7,0,1.3,0.6,1.3,1.3C68,22.3,67.4,22.9,66.7,22.9z"/>
										<path d="M66.7,12.1c-1.2,0-2.2,1-2.2,2.2s1,2.2,2.2,2.2c1.2,0,2.2-1,2.2-2.2S67.9,12.1,66.7,12.1z M66.7,15.7
											c-0.7,0-1.3-0.6-1.3-1.3s0.6-1.3,1.3-1.3c0.7,0,1.3,0.6,1.3,1.3S67.4,15.7,66.7,15.7z"/>
										<path d="M66.7,4.9c-1.2,0-2.2,1-2.2,2.2c0,1.2,1,2.2,2.2,2.2c1.2,0,2.2-1,2.2-2.2C68.9,5.9,67.9,4.9,66.7,4.9z M66.7,8.5
											c-0.7,0-1.3-0.6-1.3-1.3c0-0.7,0.6-1.3,1.3-1.3c0.7,0,1.3,0.6,1.3,1.3C68,7.9,67.4,8.5,66.7,8.5z"/>
										<path d="M66.7-2.3c-1.2,0-2.2,1-2.2,2.2s1,2.2,2.2,2.2c1.2,0,2.2-1,2.2-2.2S67.9-2.3,66.7-2.3z M66.7,1.3
											c-0.7,0-1.3-0.6-1.3-1.3s0.6-1.3,1.3-1.3C67.4-1.3,68-0.7,68,0S67.4,1.3,66.7,1.3z"/>
										<path d="M120.7-66.2c-2.7,0-5,2.2-5,5s2.2,5,5,5c2.7,0,5-2.2,5-5S123.4-66.2,120.7-66.2z M120.7-57.7
											c-2,0-3.5-1.6-3.5-3.5s1.6-3.5,3.5-3.5c2,0,3.5,1.6,3.5,3.5S122.7-57.7,120.7-57.7z"/>
										<path d="M66.7-9.5c-1.2,0-2.2,1-2.2,2.2s1,2.2,2.2,2.2c1.2,0,2.2-1,2.2-2.2S67.9-9.5,66.7-9.5z M66.7-5.9
											c-0.7,0-1.3-0.6-1.3-1.3s0.6-1.3,1.3-1.3c0.7,0,1.3,0.6,1.3,1.3S67.4-5.9,66.7-5.9z"/>
										<path d="M66.7-16.7c-1.2,0-2.2,1-2.2,2.2s1,2.2,2.2,2.2c1.2,0,2.2-1,2.2-2.2S67.9-16.7,66.7-16.7z M66.7-13.1
											c-0.7,0-1.3-0.6-1.3-1.3s0.6-1.3,1.3-1.3c0.7,0,1.3,0.6,1.3,1.3S67.4-13.1,66.7-13.1z"/>
										<path d="M66.7-23.9c-1.2,0-2.2,1-2.2,2.2s1,2.2,2.2,2.2c1.2,0,2.2-1,2.2-2.2S67.9-23.9,66.7-23.9z M66.7-20.3
											c-0.7,0-1.3-0.6-1.3-1.3s0.6-1.3,1.3-1.3c0.7,0,1.3,0.6,1.3,1.3S67.4-20.3,66.7-20.3z"/>
										<path d="M66.7-31.1c-1.2,0-2.2,1-2.2,2.2s1,2.2,2.2,2.2c1.2,0,2.2-1,2.2-2.2S67.9-31.1,66.7-31.1z M66.7-27.5
											c-0.7,0-1.3-0.6-1.3-1.3s0.6-1.3,1.3-1.3c0.7,0,1.3,0.6,1.3,1.3S67.4-27.5,66.7-27.5z"/>
										<path d="M66.7-38.3c-1.2,0-2.2,1-2.2,2.2s1,2.2,2.2,2.2c1.2,0,2.2-1,2.2-2.2S67.9-38.3,66.7-38.3z M66.7-34.7
											c-0.7,0-1.3-0.6-1.3-1.3s0.6-1.3,1.3-1.3c0.7,0,1.3,0.6,1.3,1.3S67.4-34.7,66.7-34.7z"/>
										<path d="M66.7-45.5c-1.2,0-2.2,1-2.2,2.2s1,2.2,2.2,2.2c1.2,0,2.2-1,2.2-2.2S67.9-45.5,66.7-45.5z M66.7-41.9
											c-0.7,0-1.3-0.6-1.3-1.3s0.6-1.3,1.3-1.3c0.7,0,1.3,0.6,1.3,1.3S67.4-41.9,66.7-41.9z"/>
										<path d="M66.7-52.7c-1.2,0-2.2,1-2.2,2.2s1,2.2,2.2,2.2c1.2,0,2.2-1,2.2-2.2S67.9-52.7,66.7-52.7z M66.7-49.1
											c-0.7,0-1.3-0.6-1.3-1.3s0.6-1.3,1.3-1.3c0.7,0,1.3,0.6,1.3,1.3S67.4-49.1,66.7-49.1z"/>
										<path d="M124.3-23.9c-1.2,0-2.2,1-2.2,2.2s1,2.2,2.2,2.2s2.2-1,2.2-2.2S125.5-23.9,124.3-23.9z M124.3-20.3
											c-0.7,0-1.3-0.6-1.3-1.3s0.6-1.3,1.3-1.3s1.3,0.6,1.3,1.3S125-20.3,124.3-20.3z"/>
										<path d="M124.3-16.7c-1.2,0-2.2,1-2.2,2.2s1,2.2,2.2,2.2s2.2-1,2.2-2.2S125.5-16.7,124.3-16.7z M124.3-13.1
											c-0.7,0-1.3-0.6-1.3-1.3s0.6-1.3,1.3-1.3s1.3,0.6,1.3,1.3S125-13.1,124.3-13.1z"/>
										<path d="M124.3-9.5c-1.2,0-2.2,1-2.2,2.2s1,2.2,2.2,2.2s2.2-1,2.2-2.2S125.5-9.5,124.3-9.5z M124.3-5.9
											c-0.7,0-1.3-0.6-1.3-1.3s0.6-1.3,1.3-1.3s1.3,0.6,1.3,1.3S125-5.9,124.3-5.9z"/>
										<path d="M124.3-2.3c-1.2,0-2.2,1-2.2,2.2s1,2.2,2.2,2.2s2.2-1,2.2-2.2S125.5-2.3,124.3-2.3z M124.3,1.3
											c-0.7,0-1.3-0.6-1.3-1.3s0.6-1.3,1.3-1.3s1.3,0.6,1.3,1.3S125,1.3,124.3,1.3z"/>
										<path d="M124.3,4.9c-1.2,0-2.2,1-2.2,2.2c0,1.2,1,2.2,2.2,2.2s2.2-1,2.2-2.2C126.5,5.9,125.5,4.9,124.3,4.9z M124.3,8.5
											c-0.7,0-1.3-0.6-1.3-1.3c0-0.7,0.6-1.3,1.3-1.3s1.3,0.6,1.3,1.3C125.6,7.9,125,8.5,124.3,8.5z"/>
										<path d="M124.3,12.1c-1.2,0-2.2,1-2.2,2.2s1,2.2,2.2,2.2s2.2-1,2.2-2.2S125.5,12.1,124.3,12.1z M124.3,15.7
											c-0.7,0-1.3-0.6-1.3-1.3s0.6-1.3,1.3-1.3s1.3,0.6,1.3,1.3S125,15.7,124.3,15.7z"/>
										<path d="M124.3,19.3c-1.2,0-2.2,1-2.2,2.2c0,1.2,1,2.2,2.2,2.2s2.2-1,2.2-2.2C126.5,20.3,125.5,19.3,124.3,19.3z
											 M124.3,22.9c-0.7,0-1.3-0.6-1.3-1.3c0-0.7,0.6-1.3,1.3-1.3s1.3,0.6,1.3,1.3C125.6,22.3,125,22.9,124.3,22.9z"/>
										<path d="M124.3,26.5c-1.2,0-2.2,1-2.2,2.2s1,2.2,2.2,2.2s2.2-1,2.2-2.2S125.5,26.5,124.3,26.5z M124.3,30.1
											c-0.7,0-1.3-0.6-1.3-1.3s0.6-1.3,1.3-1.3s1.3,0.6,1.3,1.3S125,30.1,124.3,30.1z"/>
										<path d="M124.3,33.7c-1.2,0-2.2,1-2.2,2.2s1,2.2,2.2,2.2s2.2-1,2.2-2.2S125.5,33.7,124.3,33.7z M124.3,37.3
											c-0.7,0-1.3-0.6-1.3-1.3s0.6-1.3,1.3-1.3s1.3,0.6,1.3,1.3S125,37.3,124.3,37.3z"/>
										<path d="M124.3,40.9c-1.2,0-2.2,1-2.2,2.2c0,1.2,1,2.2,2.2,2.2s2.2-1,2.2-2.2C126.5,41.9,125.5,40.9,124.3,40.9z
											 M124.3,44.5c-0.7,0-1.3-0.6-1.3-1.3c0-0.7,0.6-1.3,1.3-1.3s1.3,0.6,1.3,1.3C125.6,43.9,125,44.5,124.3,44.5z"/>
										<path d="M124.3,48.1c-1.2,0-2.2,1-2.2,2.2s1,2.2,2.2,2.2s2.2-1,2.2-2.2S125.5,48.1,124.3,48.1z M124.3,51.7
											c-0.7,0-1.3-0.6-1.3-1.3s0.6-1.3,1.3-1.3s1.3,0.6,1.3,1.3S125,51.7,124.3,51.7z"/>
										<path d="M124.3,55.3c-1.2,0-2.2,1-2.2,2.2s1,2.2,2.2,2.2s2.2-1,2.2-2.2S125.5,55.3,124.3,55.3z M124.3,58.9
											c-0.7,0-1.3-0.6-1.3-1.3s0.6-1.3,1.3-1.3s1.3,0.6,1.3,1.3S125,58.9,124.3,58.9z"/>
										<path d="M86.1-55.1c-1,0-1.9,0.8-1.9,1.9s0.8,1.9,1.9,1.9c1,0,1.9-0.8,1.9-1.9S87.2-55.1,86.1-55.1z M86.1-52.1
											c-0.6,0-1.1-0.5-1.1-1.1s0.5-1.1,1.1-1.1c0.6,0,1.1,0.5,1.1,1.1S86.8-52.1,86.1-52.1z"/>
										<path d="M87.6-54.8v3h-4.5v-3H87.6 M86.1-54.8c-0.8,0-1.5,0.7-1.5,1.5c0,0.8,0.7,1.5,1.5,1.5c0,0,0,0,0,0
											c0.8,0,1.5-0.7,1.5-1.5C87.6-54.1,87-54.8,86.1-54.8C86.2-54.8,86.1-54.8,86.1-54.8z"/>
										<path d="M85.3-64.6c-1.9,0-3.4,1.5-3.4,3.4c0,1.9,1.5,3.4,3.4,3.4c1.9,0,3.4-1.5,3.4-3.4C88.7-63.1,87.2-64.6,85.3-64.6z
											 M85.3-59.9c-0.7,0-1.3-0.6-1.3-1.3c0-0.7,0.6-1.3,1.3-1.3c0.7,0,1.3,0.6,1.3,1.3C86.6-60.5,86-59.9,85.3-59.9z"/>
										<path d="M88.7-64.6h-6.8v6.8h6.8V-64.6z M84-62.5h2.6v2.6H84V-62.5z"/>
									</g>
								</g>
								<g>
									<path d="M70.3-66.2c-2.7,0-5,2.2-5,5s2.2,5,5,5s5-2.2,5-5S73-66.2,70.3-66.2z M70.3-57.7c-2,0-3.5-1.6-3.5-3.5
										s1.6-3.5,3.5-3.5s3.5,1.6,3.5,3.5S72.3-57.7,70.3-57.7z"/>
									<path d="M105.7-64.6c-1.9,0-3.4,1.5-3.4,3.4c0,1.9,1.5,3.4,3.4,3.4c1.9,0,3.4-1.5,3.4-3.4
										C109.1-63.1,107.6-64.6,105.7-64.6z M105.7-59.9c-0.7,0-1.3-0.6-1.3-1.3c0-0.7,0.6-1.3,1.3-1.3c0.7,0,1.3,0.6,1.3,1.3
										C107-60.5,106.4-59.9,105.7-59.9z"/>
									<path d="M109.1-64.6h-6.8v6.8h6.8V-64.6z M104.4-62.5h2.6v2.6h-2.6V-62.5z"/>
									<path d="M104.9-55.1c-1,0-1.9,0.8-1.9,1.9s0.8,1.9,1.9,1.9c1,0,1.9-0.8,1.9-1.9S105.9-55.1,104.9-55.1z M104.9-52.1
										c-0.6,0-1.1-0.5-1.1-1.1s0.5-1.1,1.1-1.1s1.1,0.5,1.1,1.1S105.5-52.1,104.9-52.1z"/>
									<path d="M107.8-54.8v3h-4.5v-3H107.8 M104.9-54.8c-0.8,0-1.5,0.7-1.5,1.5c0,0.8,0.7,1.5,1.5,1.5c0,0,0,0,0,0
										c0.8,0,1.5-0.7,1.5-1.5C106.4-54.1,105.7-54.8,104.9-54.8C104.9-54.8,104.9-54.8,104.9-54.8z"/>
									<path d="M66.7,55.3c-1.2,0-2.2,1-2.2,2.2s1,2.2,2.2,2.2c1.2,0,2.2-1,2.2-2.2S67.9,55.3,66.7,55.3z M66.7,58.9
										c-0.7,0-1.3-0.6-1.3-1.3s0.6-1.3,1.3-1.3c0.7,0,1.3,0.6,1.3,1.3S67.4,58.9,66.7,58.9z"/>
									<path d="M66.7,48.1c-1.2,0-2.2,1-2.2,2.2s1,2.2,2.2,2.2c1.2,0,2.2-1,2.2-2.2S67.9,48.1,66.7,48.1z M66.7,51.7
										c-0.7,0-1.3-0.6-1.3-1.3s0.6-1.3,1.3-1.3c0.7,0,1.3,0.6,1.3,1.3S67.4,51.7,66.7,51.7z"/>
									<path d="M66.7,40.9c-1.2,0-2.2,1-2.2,2.2c0,1.2,1,2.2,2.2,2.2c1.2,0,2.2-1,2.2-2.2C68.9,41.9,67.9,40.9,66.7,40.9z
										 M66.7,44.5c-0.7,0-1.3-0.6-1.3-1.3c0-0.7,0.6-1.3,1.3-1.3c0.7,0,1.3,0.6,1.3,1.3C68,43.9,67.4,44.5,66.7,44.5z"/>
									<path d="M66.7,33.7c-1.2,0-2.2,1-2.2,2.2s1,2.2,2.2,2.2c1.2,0,2.2-1,2.2-2.2S67.9,33.7,66.7,33.7z M66.7,37.3
										c-0.7,0-1.3-0.6-1.3-1.3s0.6-1.3,1.3-1.3c0.7,0,1.3,0.6,1.3,1.3S67.4,37.3,66.7,37.3z"/>
									<path d="M66.7,26.5c-1.2,0-2.2,1-2.2,2.2s1,2.2,2.2,2.2c1.2,0,2.2-1,2.2-2.2S67.9,26.5,66.7,26.5z M66.7,30.1
										c-0.7,0-1.3-0.6-1.3-1.3s0.6-1.3,1.3-1.3c0.7,0,1.3,0.6,1.3,1.3S67.4,30.1,66.7,30.1z"/>
									<path d="M66.7,19.3c-1.2,0-2.2,1-2.2,2.2c0,1.2,1,2.2,2.2,2.2c1.2,0,2.2-1,2.2-2.2C68.9,20.3,67.9,19.3,66.7,19.3z
										 M66.7,22.9c-0.7,0-1.3-0.6-1.3-1.3c0-0.7,0.6-1.3,1.3-1.3c0.7,0,1.3,0.6,1.3,1.3C68,22.3,67.4,22.9,66.7,22.9z"/>
									<path d="M66.7,12.1c-1.2,0-2.2,1-2.2,2.2s1,2.2,2.2,2.2c1.2,0,2.2-1,2.2-2.2S67.9,12.1,66.7,12.1z M66.7,15.7
										c-0.7,0-1.3-0.6-1.3-1.3s0.6-1.3,1.3-1.3c0.7,0,1.3,0.6,1.3,1.3S67.4,15.7,66.7,15.7z"/>
									<path d="M66.7,4.9c-1.2,0-2.2,1-2.2,2.2c0,1.2,1,2.2,2.2,2.2c1.2,0,2.2-1,2.2-2.2C68.9,5.9,67.9,4.9,66.7,4.9z M66.7,8.5
										c-0.7,0-1.3-0.6-1.3-1.3c0-0.7,0.6-1.3,1.3-1.3c0.7,0,1.3,0.6,1.3,1.3C68,7.9,67.4,8.5,66.7,8.5z"/>
									<path d="M66.7-2.3c-1.2,0-2.2,1-2.2,2.2s1,2.2,2.2,2.2c1.2,0,2.2-1,2.2-2.2S67.9-2.3,66.7-2.3z M66.7,1.3
										c-0.7,0-1.3-0.6-1.3-1.3s0.6-1.3,1.3-1.3C67.4-1.3,68-0.7,68,0S67.4,1.3,66.7,1.3z"/>
									<path d="M120.7-66.2c-2.7,0-5,2.2-5,5s2.2,5,5,5c2.7,0,5-2.2,5-5S123.4-66.2,120.7-66.2z M120.7-57.7c-2,0-3.5-1.6-3.5-3.5
										s1.6-3.5,3.5-3.5c2,0,3.5,1.6,3.5,3.5S122.7-57.7,120.7-57.7z"/>
									<path d="M66.7-9.5c-1.2,0-2.2,1-2.2,2.2s1,2.2,2.2,2.2c1.2,0,2.2-1,2.2-2.2S67.9-9.5,66.7-9.5z M66.7-5.9
										c-0.7,0-1.3-0.6-1.3-1.3s0.6-1.3,1.3-1.3c0.7,0,1.3,0.6,1.3,1.3S67.4-5.9,66.7-5.9z"/>
									<path d="M66.7-16.7c-1.2,0-2.2,1-2.2,2.2s1,2.2,2.2,2.2c1.2,0,2.2-1,2.2-2.2S67.9-16.7,66.7-16.7z M66.7-13.1
										c-0.7,0-1.3-0.6-1.3-1.3s0.6-1.3,1.3-1.3c0.7,0,1.3,0.6,1.3,1.3S67.4-13.1,66.7-13.1z"/>
									<path d="M66.7-23.9c-1.2,0-2.2,1-2.2,2.2s1,2.2,2.2,2.2c1.2,0,2.2-1,2.2-2.2S67.9-23.9,66.7-23.9z M66.7-20.3
										c-0.7,0-1.3-0.6-1.3-1.3s0.6-1.3,1.3-1.3c0.7,0,1.3,0.6,1.3,1.3S67.4-20.3,66.7-20.3z"/>
									<path d="M66.7-31.1c-1.2,0-2.2,1-2.2,2.2s1,2.2,2.2,2.2c1.2,0,2.2-1,2.2-2.2S67.9-31.1,66.7-31.1z M66.7-27.5
										c-0.7,0-1.3-0.6-1.3-1.3s0.6-1.3,1.3-1.3c0.7,0,1.3,0.6,1.3,1.3S67.4-27.5,66.7-27.5z"/>
									<path d="M66.7-38.3c-1.2,0-2.2,1-2.2,2.2s1,2.2,2.2,2.2c1.2,0,2.2-1,2.2-2.2S67.9-38.3,66.7-38.3z M66.7-34.7
										c-0.7,0-1.3-0.6-1.3-1.3s0.6-1.3,1.3-1.3c0.7,0,1.3,0.6,1.3,1.3S67.4-34.7,66.7-34.7z"/>
									<path d="M66.7-45.5c-1.2,0-2.2,1-2.2,2.2s1,2.2,2.2,2.2c1.2,0,2.2-1,2.2-2.2S67.9-45.5,66.7-45.5z M66.7-41.9
										c-0.7,0-1.3-0.6-1.3-1.3s0.6-1.3,1.3-1.3c0.7,0,1.3,0.6,1.3,1.3S67.4-41.9,66.7-41.9z"/>
									<path d="M66.7-52.7c-1.2,0-2.2,1-2.2,2.2s1,2.2,2.2,2.2c1.2,0,2.2-1,2.2-2.2S67.9-52.7,66.7-52.7z M66.7-49.1
										c-0.7,0-1.3-0.6-1.3-1.3s0.6-1.3,1.3-1.3c0.7,0,1.3,0.6,1.3,1.3S67.4-49.1,66.7-49.1z"/>
									<path d="M124.3-23.9c-1.2,0-2.2,1-2.2,2.2s1,2.2,2.2,2.2s2.2-1,2.2-2.2S125.5-23.9,124.3-23.9z M124.3-20.3
										c-0.7,0-1.3-0.6-1.3-1.3s0.6-1.3,1.3-1.3s1.3,0.6,1.3,1.3S125-20.3,124.3-20.3z"/>
									<path d="M124.3-16.7c-1.2,0-2.2,1-2.2,2.2s1,2.2,2.2,2.2s2.2-1,2.2-2.2S125.5-16.7,124.3-16.7z M124.3-13.1
										c-0.7,0-1.3-0.6-1.3-1.3s0.6-1.3,1.3-1.3s1.3,0.6,1.3,1.3S125-13.1,124.3-13.1z"/>
									<path d="M124.3-9.5c-1.2,0-2.2,1-2.2,2.2s1,2.2,2.2,2.2s2.2-1,2.2-2.2S125.5-9.5,124.3-9.5z M124.3-5.9
										c-0.7,0-1.3-0.6-1.3-1.3s0.6-1.3,1.3-1.3s1.3,0.6,1.3,1.3S125-5.9,124.3-5.9z"/>
									<path d="M124.3-2.3c-1.2,0-2.2,1-2.2,2.2s1,2.2,2.2,2.2s2.2-1,2.2-2.2S125.5-2.3,124.3-2.3z M124.3,1.3
										c-0.7,0-1.3-0.6-1.3-1.3s0.6-1.3,1.3-1.3s1.3,0.6,1.3,1.3S125,1.3,124.3,1.3z"/>
									<path d="M124.3,4.9c-1.2,0-2.2,1-2.2,2.2c0,1.2,1,2.2,2.2,2.2s2.2-1,2.2-2.2C126.5,5.9,125.5,4.9,124.3,4.9z M124.3,8.5
										c-0.7,0-1.3-0.6-1.3-1.3c0-0.7,0.6-1.3,1.3-1.3s1.3,0.6,1.3,1.3C125.6,7.9,125,8.5,124.3,8.5z"/>
									<path d="M124.3,12.1c-1.2,0-2.2,1-2.2,2.2s1,2.2,2.2,2.2s2.2-1,2.2-2.2S125.5,12.1,124.3,12.1z M124.3,15.7
										c-0.7,0-1.3-0.6-1.3-1.3s0.6-1.3,1.3-1.3s1.3,0.6,1.3,1.3S125,15.7,124.3,15.7z"/>
									<path d="M124.3,19.3c-1.2,0-2.2,1-2.2,2.2c0,1.2,1,2.2,2.2,2.2s2.2-1,2.2-2.2C126.5,20.3,125.5,19.3,124.3,19.3z
										 M124.3,22.9c-0.7,0-1.3-0.6-1.3-1.3c0-0.7,0.6-1.3,1.3-1.3s1.3,0.6,1.3,1.3C125.6,22.3,125,22.9,124.3,22.9z"/>
									<path d="M124.3,26.5c-1.2,0-2.2,1-2.2,2.2s1,2.2,2.2,2.2s2.2-1,2.2-2.2S125.5,26.5,124.3,26.5z M124.3,30.1
										c-0.7,0-1.3-0.6-1.3-1.3s0.6-1.3,1.3-1.3s1.3,0.6,1.3,1.3S125,30.1,124.3,30.1z"/>
									<path d="M124.3,33.7c-1.2,0-2.2,1-2.2,2.2s1,2.2,2.2,2.2s2.2-1,2.2-2.2S125.5,33.7,124.3,33.7z M124.3,37.3
										c-0.7,0-1.3-0.6-1.3-1.3s0.6-1.3,1.3-1.3s1.3,0.6,1.3,1.3S125,37.3,124.3,37.3z"/>
									<path d="M124.3,40.9c-1.2,0-2.2,1-2.2,2.2c0,1.2,1,2.2,2.2,2.2s2.2-1,2.2-2.2C126.5,41.9,125.5,40.9,124.3,40.9z
										 M124.3,44.5c-0.7,0-1.3-0.6-1.3-1.3c0-0.7,0.6-1.3,1.3-1.3s1.3,0.6,1.3,1.3C125.6,43.9,125,44.5,124.3,44.5z"/>
									<path d="M124.3,48.1c-1.2,0-2.2,1-2.2,2.2s1,2.2,2.2,2.2s2.2-1,2.2-2.2S125.5,48.1,124.3,48.1z M124.3,51.7
										c-0.7,0-1.3-0.6-1.3-1.3s0.6-1.3,1.3-1.3s1.3,0.6,1.3,1.3S125,51.7,124.3,51.7z"/>
									<path d="M124.3,55.3c-1.2,0-2.2,1-2.2,2.2s1,2.2,2.2,2.2s2.2-1,2.2-2.2S125.5,55.3,124.3,55.3z M124.3,58.9
										c-0.7,0-1.3-0.6-1.3-1.3s0.6-1.3,1.3-1.3s1.3,0.6,1.3,1.3S125,58.9,124.3,58.9z"/>
									<path d="M86.1-55.1c-1,0-1.9,0.8-1.9,1.9s0.8,1.9,1.9,1.9c1,0,1.9-0.8,1.9-1.9S87.2-55.1,86.1-55.1z M86.1-52.1
										c-0.6,0-1.1-0.5-1.1-1.1s0.5-1.1,1.1-1.1c0.6,0,1.1,0.5,1.1,1.1S86.8-52.1,86.1-52.1z"/>
									<path d="M87.6-54.8v3h-4.5v-3H87.6 M86.1-54.8c-0.8,0-1.5,0.7-1.5,1.5c0,0.8,0.7,1.5,1.5,1.5c0,0,0,0,0,0
										c0.8,0,1.5-0.7,1.5-1.5C87.6-54.1,87-54.8,86.1-54.8C86.2-54.8,86.1-54.8,86.1-54.8z"/>
									<path d="M85.3-64.6c-1.9,0-3.4,1.5-3.4,3.4c0,1.9,1.5,3.4,3.4,3.4c1.9,0,3.4-1.5,3.4-3.4C88.7-63.1,87.2-64.6,85.3-64.6z
										 M85.3-59.9c-0.7,0-1.3-0.6-1.3-1.3c0-0.7,0.6-1.3,1.3-1.3c0.7,0,1.3,0.6,1.3,1.3C86.6-60.5,86-59.9,85.3-59.9z"/>
									<path d="M88.7-64.6h-6.8v6.8h6.8V-64.6z M84-62.5h2.6v2.6H84V-62.5z"/>
								</g>
							</g>
						</g>
					</g>
				</g>
			</g>
		</g>
	</g>
	<g class="st1">
		<g transform="translate(90.6981,70.1283)">
			<g transform="matrix(-1,0,0,-1,0,0)">
				<g id="copper0_00000018202053019948685300000006209705446765302945_">
					<path d="M32.3,7.2V1.3h5.9v5.9H32.3z M33.7,2.7v3h3v-3H33.7z"/>
					<path d="M32.3,4.2c0-1.6,1.3-3,3-3s3,1.3,3,3c0,1.6-1.3,3-3,3S32.3,5.8,32.3,4.2z M36.8,4.2c0-0.8-0.7-1.5-1.5-1.5
						s-1.5,0.7-1.5,1.5c0,0.8,0.7,1.5,1.5,1.5S36.8,5,36.8,4.2z"/>
					<path d="M32.3-3c0-1.6,1.3-3,3-3s3,1.3,3,3c0,1.6-1.3,3-3,3S32.3-1.4,32.3-3z M36.8-3c0-0.8-0.7-1.5-1.5-1.5S33.7-3.8,33.7-3
						s0.7,1.5,1.5,1.5S36.8-2.2,36.8-3z"/>
					<path d="M32.3-10.2c0-1.6,1.3-3,3-3s3,1.3,3,3s-1.3,3-3,3S32.3-8.6,32.3-10.2z M36.8-10.2c0-0.8-0.7-1.5-1.5-1.5
						s-1.5,0.7-1.5,1.5s0.7,1.5,1.5,1.5S36.8-9.4,36.8-10.2z"/>
				</g>
			</g>
		</g>
	</g>
	<g class="st1">
		<g transform="translate(47.4981,74.4483)">
			<g id="copper0_00000010312942943030241220000007363211685114678915_">
				<path d="M44,14.4v5.9h-5.9v-5.9H44z M42.6,18.9v-3h-3v3H42.6z"/>
				<path d="M44,17.4c0,1.6-1.3,3-3,3s-3-1.3-3-3s1.3-3,3-3S44,15.8,44,17.4z M39.6,17.4c0,0.8,0.7,1.5,1.5,1.5
					c0.8,0,1.5-0.7,1.5-1.5s-0.7-1.5-1.5-1.5C40.2,15.9,39.6,16.6,39.6,17.4z"/>
				<path d="M44,10.2c0,1.6-1.3,3-3,3s-3-1.3-3-3s1.3-3,3-3S44,8.6,44,10.2z M39.6,10.2c0,0.8,0.7,1.5,1.5,1.5
					c0.8,0,1.5-0.7,1.5-1.5c0-0.8-0.7-1.5-1.5-1.5C40.2,8.7,39.6,9.4,39.6,10.2z"/>
				<path d="M44,3c0,1.6-1.3,3-3,3s-3-1.3-3-3s1.3-3,3-3S44,1.4,44,3z M39.6,3c0,0.8,0.7,1.5,1.5,1.5c0.8,0,1.5-0.7,1.5-1.5
					s-0.7-1.5-1.5-1.5C40.2,1.5,39.6,2.2,39.6,3z"/>
			</g>
		</g>
	</g>
	<g class="st1">
		<g transform="translate(53.5869,99.4219)">
			<g id="copper0_00000159459265848246280840000003648666823104813241_">
				<g transform="matrix(-1, 0, 0, 1, 17.5748, 0)">
					<g>
						<g>
							<g>
								
									<rect id="connector0pad_00000030485930421868844530000007842263318754558641_" x="-35.6" y="-17.5" width="7.7" height="-5.1"/>
								
									<rect id="connector1pad_00000018936834607505087120000010889362514765617576_" x="-35.6" y="-5" width="7.7" height="-5.1"/>
								<g id="copper0_00000085223792856852485480000008574770773168407206_">
								</g>
							</g>
						</g>
					</g>
				</g>
			</g>
		</g>
	</g>
	<g class="st1">
		<path d="M72.7,68.3c0,0,0,0.1,0,0.1c-0.1,0.5-0.5,0.8-1,0.7L56.8,67c-0.5-0.1-0.8-0.5-0.7-1c0.1-0.5,0.5-0.8,1-0.7L72,67.5
			C72.4,67.5,72.7,67.9,72.7,68.3z"/>
	</g>
	<g class="st1">
		<path d="M89.7,34.8c0,0.4-0.3,0.7-0.6,0.8c-0.5,0.1-0.9-0.1-1.1-0.6l-0.1-0.4c-0.1-0.5,0.1-0.9,0.6-1.1c0.5-0.1,0.9,0.1,1.1,0.6
			l0.1,0.4C89.7,34.7,89.7,34.7,89.7,34.8z"/>
	</g>
	<g class="st1">
		<path d="M127.2,32.9c0,0.1,0,0.2,0,0.3c-0.1,0.5-0.6,0.7-1.1,0.6l-12.7-4.1c-0.5-0.1-0.7-0.6-0.6-1.1c0.1-0.5,0.6-0.7,1.1-0.6
			l12.7,4.1C126.9,32.2,127.2,32.5,127.2,32.9z"/>
	</g>
	<g class="st1">
		<path d="M130.8,50.8c0,0.4-0.3,0.8-0.7,0.8c-0.5,0.1-0.9-0.2-1-0.7l-3.6-17.9c-0.1-0.5,0.2-0.9,0.7-1c0.5-0.1,0.9,0.2,1,0.7
			l3.6,17.9C130.8,50.7,130.8,50.8,130.8,50.8z"/>
	</g>
	<g class="st1">
		<path d="M109.3,63c0,0.3-0.1,0.5-0.3,0.7L91,77.1c-0.4,0.3-0.9,0.2-1.2-0.2c-0.3-0.4-0.2-0.9,0.2-1.2l17.9-13.4
			c0.4-0.3,0.9-0.2,1.2,0.2C109.2,62.7,109.3,62.8,109.3,63z"/>
	</g>
	<g class="st1">
		<path d="M114.5,28.7C114.5,28.8,114.5,28.8,114.5,28.7c0,0.5-0.4,0.9-0.9,0.9l-21-0.3c-0.5,0-0.9-0.4-0.9-0.9
			c0-0.5,0.4-0.9,0.9-0.9l21,0.3C114.1,27.9,114.5,28.3,114.5,28.7z"/>
	</g>
	<g class="st1">
		<path d="M93.5,28.5c0,0.2,0,0.3-0.1,0.4l-3.9,6.3c-0.2,0.4-0.8,0.5-1.2,0.3c-0.4-0.2-0.5-0.8-0.3-1.2l3.9-6.3
			c0.2-0.4,0.8-0.5,1.2-0.3C93.4,27.9,93.5,28.2,93.5,28.5z"/>
	</g>
	<g class="st1">
		<path d="M130.8,50.8c0,0.2,0,0.3-0.1,0.4l-5.9,9.9l-16.2,2.7c-0.5,0.1-0.9-0.2-1-0.7c-0.1-0.5,0.2-0.9,0.7-1l15.4-2.6l5.5-9.2
			c0.2-0.4,0.8-0.5,1.2-0.3C130.6,50.2,130.8,50.5,130.8,50.8z"/>
	</g>
	<g class="st1">
		<path d="M100.4,78.9c0,0,0,0.1,0,0.1c-0.1,0.5-0.5,0.8-1,0.7l-8.8-1.2c-0.5-0.1-0.8-0.5-0.7-1c0.1-0.5,0.5-0.8,1-0.7l8.8,1.2
			C100.1,78.1,100.4,78.5,100.4,78.9z"/>
	</g>
	<g class="st1">
		<path d="M72.7,77.8c0,0.4-0.3,0.8-0.7,0.9l-14.9,2.3c-0.5,0.1-0.9-0.3-1-0.7c-0.1-0.5,0.3-0.9,0.7-1l14.9-2.3
			c0.5-0.1,0.9,0.3,1,0.7C72.7,77.7,72.7,77.7,72.7,77.8z"/>
	</g>
	<g class="st1">
		<path d="M117.3,105.3c0,0.2-0.1,0.4-0.3,0.6c-0.3,0.3-0.9,0.3-1.2,0l-11.3-11.3c-0.3-0.3-0.3-0.9,0-1.2c0.3-0.3,0.9-0.3,1.2,0
			l11.3,11.3C117.2,104.9,117.3,105.1,117.3,105.3z"/>
	</g>
	<g class="st1">
		<path d="M111.5,37.1C111.5,37.1,111.5,37.2,111.5,37.1l-0.4,10.3c0,0.5-0.4,0.8-0.9,0.8s-0.9-0.4-0.8-0.9l0.4-10.2
			c0-0.5,0.4-0.8,0.9-0.8C111.1,36.3,111.5,36.7,111.5,37.1z"/>
	</g>
	<g class="st1">
		<path d="M54.1,80.3c0,0.5-0.4,0.8-0.8,0.9l-37.7,2.2c-0.5,0-0.9-0.3-0.9-0.8c0-0.5,0.3-0.9,0.8-0.9l37.7-2.2
			C53.6,79.4,54,79.8,54.1,80.3C54.1,80.3,54.1,80.3,54.1,80.3z"/>
	</g>
	<g class="st1">
		<path d="M158.6,127c0,0.3-0.1,0.6-0.4,0.7c-0.4,0.3-0.9,0.2-1.2-0.2l-4.1-6.1c-0.3-0.4-0.2-0.9,0.2-1.2c0.4-0.3,0.9-0.2,1.2,0.2
			l4.1,6.1C158.6,126.6,158.6,126.8,158.6,127z"/>
	</g>
	<g class="st1">
		<path d="M152.4,117.2c0,0.3-0.2,0.6-0.5,0.8c-0.4,0.2-0.9,0-1.2-0.4l-4.5-9.1c-0.2-0.4,0-0.9,0.4-1.2c0.4-0.2,0.9,0,1.2,0.4
			l4.5,9.1C152.4,116.9,152.4,117,152.4,117.2z"/>
	</g>
	<g class="st1">
		<path d="M173.8,126.7c0,0.5-0.4,0.9-0.8,0.9l-15.2,0.3c-0.5,0-0.9-0.4-0.9-0.8c0-0.5,0.4-0.9,0.8-0.9l15.2-0.3
			C173.4,125.8,173.8,126.2,173.8,126.7C173.8,126.7,173.8,126.7,173.8,126.7z"/>
	</g>
	<g class="st1">
		<path d="M184,113.4c0,0.2-0.1,0.4-0.2,0.5l-10.2,13.2c-0.3,0.4-0.8,0.4-1.2,0.2c-0.4-0.3-0.4-0.8-0.2-1.2l10.2-13.2
			c0.3-0.4,0.8-0.4,1.2-0.2C183.9,112.9,184,113.2,184,113.4z"/>
	</g>
	<g class="st1">
		<path d="M184,113.4c0,0.5-0.4,0.9-0.9,0.9c-0.5,0-0.9-0.4-0.9-0.9l-0.6-74.8c0,0,0,0,0,0c0-0.5,0.4-0.9,0.9-0.9
			c0.5,0,0.9,0.4,0.9,0.9L184,113.4C184,113.4,184,113.4,184,113.4z"/>
	</g>
	<g class="st1">
		<path d="M183.5,38.7c0,0.3-0.1,0.5-0.3,0.7c-0.4,0.3-0.9,0.2-1.2-0.1l-21-26.3l-5.3,0.6c-0.5,0.1-0.9-0.3-1-0.8
			c-0.1-0.5,0.3-0.9,0.8-1l6.3-0.7l21.6,27.1C183.4,38.3,183.5,38.5,183.5,38.7z"/>
	</g>
	<g class="st1">
		<path d="M103.6,36.9c0,0.2,0,0.3-0.1,0.4L97.2,48c-0.2,0.4-0.8,0.5-1.2,0.3c-0.4-0.2-0.5-0.8-0.3-1.2l6.4-10.6
			c0.2-0.4,0.8-0.5,1.2-0.3C103.5,36.4,103.6,36.6,103.6,36.9z"/>
	</g>
	<g class="st1">
		<path d="M13,68.9c0,0.3-0.1,0.6-0.4,0.7l-7.4,4.5c-0.4,0.2-0.9,0.1-1.2-0.3c-0.3-0.4-0.1-0.9,0.3-1.2l7.4-4.5
			c0.4-0.2,0.9-0.1,1.2,0.3C12.9,68.6,13,68.7,13,68.9z"/>
	</g>
	<g class="st1">
		<path d="M5.8,103c0,0.5-0.4,0.9-0.9,0.9c-0.5,0-0.9-0.4-0.9-0.9L3.8,73.4c0,0,0,0,0,0c0-0.5,0.4-0.9,0.9-0.9
			c0.5,0,0.9,0.4,0.9,0.9L5.8,103C5.8,102.9,5.8,103,5.8,103z"/>
	</g>
	<g class="st1">
		<path d="M36.2,125.3c0,0.2-0.1,0.4-0.2,0.5c-0.3,0.4-0.8,0.5-1.2,0.2L4.4,103.7c-0.4-0.3-0.5-0.8-0.2-1.2c0.3-0.4,0.8-0.5,1.2-0.2
			l30.3,22.3C36,124.8,36.2,125,36.2,125.3z"/>
	</g>
	<g class="st1">
		<path d="M56.8,125.9C56.8,125.9,56.8,125.9,56.8,125.9c0,0.5-0.4,0.9-0.9,0.9l-20.7-0.6c-0.5,0-0.8-0.4-0.8-0.9
			c0-0.5,0.4-0.9,0.9-0.8L56,125C56.5,125,56.8,125.4,56.8,125.9z"/>
	</g>
	<g class="st1">
		<path d="M64.9,118.9c0,0.2-0.1,0.5-0.3,0.7l-8.1,6.9c-0.4,0.3-0.9,0.3-1.2-0.1c-0.3-0.4-0.3-0.9,0.1-1.2l8.1-6.9
			c0.4-0.3,0.9-0.3,1.2,0.1C64.8,118.5,64.9,118.7,64.9,118.9z"/>
	</g>
	<g class="st1">
		<path d="M122.3,70.1c0,0.3-0.2,0.6-0.5,0.8l-15.1,7.5c-0.4,0.2-0.9,0-1.2-0.4c-0.2-0.4,0-0.9,0.4-1.2l15.1-7.5
			c0.4-0.2,0.9,0,1.2,0.4C122.3,69.9,122.3,70,122.3,70.1z"/>
	</g>
	<g class="st1">
		<path d="M25.1,59.6c0,0.3-0.1,0.5-0.3,0.7L15,67.9c-0.4,0.3-0.9,0.2-1.2-0.2c-0.3-0.4-0.2-0.9,0.2-1.2l9.8-7.6
			c0.4-0.3,0.9-0.2,1.2,0.2C25.1,59.3,25.1,59.5,25.1,59.6z"/>
	</g>
	<g class="st1">
		<path d="M25.1,59.6c0,0.5-0.4,0.8-0.8,0.9c-0.5,0-0.9-0.4-0.9-0.8l-1.1-36.4c0,0,0,0,0,0c0-0.5,0.4-0.8,0.8-0.9
			c0.5,0,0.9,0.4,0.9,0.8L25.1,59.6C25.1,59.6,25.1,59.6,25.1,59.6z"/>
	</g>
	<g class="st1">
		<path d="M31.2,8.9c0,0.1,0,0.3-0.1,0.4l-7.2,14.3c-0.2,0.4-0.7,0.6-1.2,0.4c-0.4-0.2-0.6-0.7-0.4-1.2l7.2-14.3
			c0.2-0.4,0.7-0.6,1.2-0.4C31,8.3,31.2,8.6,31.2,8.9z"/>
	</g>
	<g class="st1">
		<path d="M48.3,6c0,0.4-0.3,0.8-0.7,0.9L30.5,9.7c-0.5,0.1-0.9-0.2-1-0.7s0.2-0.9,0.7-1l17.1-2.9c0.5-0.1,0.9,0.2,1,0.7
			C48.3,5.9,48.3,6,48.3,6z"/>
	</g>
	<g class="st1">
		<path d="M58.3,13.6c0,0.2-0.1,0.4-0.2,0.5c-0.3,0.4-0.8,0.5-1.2,0.2L46.9,6.7c-0.4-0.3-0.5-0.8-0.2-1.2s0.8-0.5,1.2-0.2L58,13
			C58.2,13.1,58.3,13.4,58.3,13.6z"/>
	</g>
	<g class="st1">
		<path d="M156.2,100.1c0,0.1,0,0.3-0.1,0.4c-0.2,0.4-0.7,0.6-1.1,0.4l-21.9-9.5c-0.4-0.2-0.6-0.7-0.4-1.1c0.2-0.4,0.7-0.6,1.1-0.4
			l21.9,9.5C156,99.5,156.2,99.8,156.2,100.1z"/>
	</g>
	<g class="st1">
		<path d="M159.9,108.2c0,0.3-0.2,0.6-0.5,0.7c-0.4,0.2-0.9,0-1.1-0.4l-3.3-7.6c-0.2-0.4,0-0.9,0.4-1.1c0.4-0.2,0.9,0,1.1,0.4
			l3.3,7.6C159.8,107.9,159.9,108,159.9,108.2z"/>
	</g>
	<g class="st1">
		<path d="M166.5,117.2c0,0.3-0.1,0.5-0.4,0.7c-0.4,0.3-0.9,0.2-1.2-0.2l-6.4-9.1c-0.3-0.4-0.2-0.9,0.2-1.2c0.4-0.3,0.9-0.2,1.2,0.2
			l6.4,9.1C166.4,116.9,166.5,117.1,166.5,117.2z"/>
	</g>
	<g class="st1">
		<path d="M140.4,24.1v29.8c0,0.5-0.4,0.9-0.9,0.9s-0.9-0.4-0.9-0.9V24.1c0-0.5,0.4-0.9,0.9-0.9S140.4,23.6,140.4,24.1z"/>
	</g>
	<g class="st1">
		<path d="M140.4,53.9c0,0.1,0,0.3-0.1,0.4L134,67.3c-0.2,0.4-0.7,0.6-1.2,0.4c-0.4-0.2-0.6-0.7-0.4-1.2l6.4-13.1
			c0.2-0.4,0.7-0.6,1.2-0.4C140.3,53.2,140.4,53.5,140.4,53.9z"/>
	</g>
	<g class="st1">
		<path d="M140.4,24.1c0,0.5-0.4,0.8-0.8,0.9c-0.5,0-0.9-0.3-0.9-0.8l-0.5-10c0-0.5,0.3-0.9,0.8-0.9s0.9,0.3,0.9,0.8L140.4,24.1
			C140.4,24,140.4,24,140.4,24.1z"/>
	</g>
	<g class="st1">
		<path d="M124.1,71.5C124.1,71.5,124.1,71.5,124.1,71.5l-0.2,15.6c0,0.5-0.4,0.9-0.9,0.9c-0.5,0-0.9-0.4-0.9-0.9c0,0,0,0,0,0
			l0.2-15.5c0-0.5,0.4-0.9,0.9-0.9C123.8,70.7,124.1,71,124.1,71.5z"/>
	</g>
	<g class="st1">
		<path d="M102.6,50.5c0,0.3-0.1,0.5-0.4,0.7L77,69.1c-0.4,0.3-0.9,0.2-1.2-0.2c-0.3-0.4-0.2-0.9,0.2-1.2l25.3-17.9
			c0.4-0.3,0.9-0.2,1.2,0.2C102.6,50.2,102.6,50.3,102.6,50.5z"/>
	</g>
	<g class="st1">
		<path d="M49.9,116.6c0,0.2-0.1,0.3-0.2,0.5c-0.3,0.4-0.8,0.5-1.2,0.2l-10.7-7.6c-0.4-0.3-0.5-0.8-0.2-1.2c0.3-0.4,0.8-0.5,1.2-0.2
			l10.7,7.6C49.8,116.1,49.9,116.3,49.9,116.6z"/>
	</g>
	<g class="st1">
		<path d="M39.2,101.4v7.6c0,0.5-0.4,0.9-0.9,0.9s-0.9-0.4-0.9-0.9v-7.6c0-0.5,0.4-0.9,0.9-0.9S39.2,100.9,39.2,101.4z"/>
	</g>
	<g class="st1">
		<path d="M51.3,91.4c0,0.2-0.1,0.5-0.3,0.7l-12.1,10c-0.4,0.3-0.9,0.3-1.2-0.1c-0.3-0.4-0.3-0.9,0.1-1.2l12.1-10
			c0.4-0.3,0.9-0.3,1.2,0.1C51.2,91,51.3,91.2,51.3,91.4z"/>
	</g>
	<g class="st1">
		<path d="M74.9,91.6C74.9,91.6,74.9,91.6,74.9,91.6c0,0.5-0.4,0.9-0.9,0.9l-23.6-0.2c-0.5,0-0.9-0.4-0.9-0.9c0-0.5,0.4-0.9,0.9-0.9
			l23.6,0.2C74.6,90.7,74.9,91.1,74.9,91.6z"/>
	</g>
	<g class="st1">
		<path d="M87.4,85.6c0,0.3-0.2,0.6-0.5,0.8l-12.5,6c-0.4,0.2-0.9,0-1.2-0.4c-0.2-0.4,0-0.9,0.4-1.2l12.5-6c0.4-0.2,0.9,0,1.2,0.4
			C87.4,85.3,87.4,85.5,87.4,85.6z"/>
	</g>
	<g class="st1">
		<path d="M59,21.5c0,0.1,0,0.3-0.1,0.4c-0.2,0.4-0.7,0.6-1.2,0.4l-12.7-6.4c-0.4-0.2-0.6-0.7-0.4-1.2c0.2-0.4,0.7-0.6,1.2-0.4
			l12.7,6.4C58.9,20.9,59,21.2,59,21.5z"/>
	</g>
	<g class="st1">
		<path d="M65.6,31.8c0,0.3-0.1,0.6-0.4,0.7c-0.4,0.3-0.9,0.1-1.2-0.3L57.4,22c-0.3-0.4-0.1-0.9,0.3-1.2c0.4-0.3,0.9-0.1,1.2,0.3
			l6.5,10.3C65.5,31.5,65.6,31.6,65.6,31.8z"/>
	</g>
	<g class="st1">
		<path d="M65.6,31.8c0,0.1,0,0.2,0,0.3L62,42.3c-0.2,0.5-0.6,0.7-1.1,0.5s-0.7-0.6-0.5-1.1l3.5-10.2c0.2-0.5,0.6-0.7,1.1-0.5
			C65.3,31.1,65.6,31.4,65.6,31.8z"/>
	</g>
	<g class="st1">
		<path d="M61.7,41.9c0,0.5-0.3,0.9-0.7,0.9l-18.7-0.2c-0.5,0-0.9-0.4-0.9-0.9c0,0,0,0,0,0c0-0.5,0.4-0.9,0.9-0.9l18.1-0.3
			c0.5,0,0.9,0.4,0.9,0.9C61.2,41.4,61.7,41.9,61.7,41.9z"/>
	</g>
	<g class="st1">
		<path d="M42.6,41.7c0,0.1,0,0.2,0,0.3l-3.4,10.4C39,52.9,38.5,53.1,38,53c-0.5-0.1-0.7-0.6-0.6-1.1l3.4-10.4
			c0.1-0.5,0.6-0.7,1.1-0.6C42.4,41,42.6,41.4,42.6,41.7z"/>
	</g>
	<g class="st1">
		<path d="M43.5,67c0,0.4-0.2,0.8-0.6,0.9c-0.5,0.1-0.9-0.1-1.1-0.6l-4-14.3c-0.1-0.5,0.1-0.9,0.6-1.1c0.5-0.1,0.9,0.1,1.1,0.6
			l4,14.3C43.5,66.9,43.5,67,43.5,67z"/>
	</g>
	<g class="st1">
		<path d="M55,72.2c0,0.1,0,0.2-0.1,0.4c-0.2,0.4-0.7,0.6-1.1,0.4l-11-5c-0.4-0.2-0.6-0.7-0.4-1.1c0.2-0.4,0.7-0.6,1.1-0.4l11,5
			C54.8,71.6,55,71.9,55,72.2z"/>
	</g>
	<g class="st1">
		<path d="M55,72.3c0,0.2,0,0.3-0.1,0.5c-0.3,0.4-0.8,0.5-1.2,0.2l-0.1,0c-0.4-0.3-0.5-0.8-0.2-1.2c0.3-0.4,0.8-0.5,1.2-0.2
			C54.9,71.7,55,72,55,72.3z"/>
	</g>
	<g class="st1">
		<path d="M132,105.1c0,0.3-0.2,0.6-0.5,0.8c-0.4,0.2-0.9,0.1-1.2-0.4l-7-13.5c-0.2-0.4-0.1-0.9,0.4-1.2c0.4-0.2,0.9-0.1,1.2,0.4
			l7,13.5C132,104.8,132,105,132,105.1z"/>
	</g>
	<g class="st1">
		<path d="M100.4,91.8c0,0.5-0.4,0.9-0.9,0.9h-8.7c-0.5,0-0.9-0.4-0.9-0.9s0.4-0.9,0.9-0.9h8.7C100,91,100.4,91.4,100.4,91.8z"/>
	</g>
	<g class="st1">
		<path d="M121.9,130.8c0,0.3-0.2,0.6-0.5,0.8c-0.4,0.2-0.9,0-1.1-0.4l-10.2-23c-0.2-0.4,0-0.9,0.4-1.1c0.4-0.2,0.9,0,1.1,0.4
			l10.2,23C121.9,130.6,121.9,130.7,121.9,130.8z"/>
	</g>
	<g class="st1">
		<path d="M176.3,131.9C176.3,131.9,176.3,131.9,176.3,131.9c0,0.5-0.4,0.9-0.9,0.9l-54.3-1.1c-0.5,0-0.8-0.5-0.8-0.9
			c0-0.5,0.4-0.9,0.9-0.8l54.3,1.1C175.9,131.1,176.3,131.5,176.3,131.9z"/>
	</g>
	<g class="st1">
		<path d="M189.5,115.4c0,0.2-0.1,0.4-0.2,0.5l-13.2,16.6c-0.3,0.4-0.8,0.4-1.2,0.1c-0.4-0.3-0.4-0.8-0.1-1.2l13.2-16.6
			c0.3-0.4,0.8-0.4,1.2-0.1C189.4,114.9,189.5,115.1,189.5,115.4z"/>
	</g>
	<g class="st1">
		<path d="M189.5,115.4c0,0.5-0.4,0.9-0.9,0.9c-0.5,0-0.9-0.4-0.9-0.9l-0.6-79.4c0,0,0,0,0,0c0-0.5,0.4-0.9,0.9-0.9
			c0.5,0,0.9,0.4,0.9,0.9L189.5,115.4C189.5,115.4,189.5,115.4,189.5,115.4z"/>
	</g>
	<g class="st1">
		<path d="M189,35.9c0,0.2-0.1,0.5-0.3,0.7c-0.4,0.3-0.9,0.3-1.2-0.1L162.9,6.7c-0.3-0.4-0.3-0.9,0.1-1.2c0.4-0.3,0.9-0.3,1.2,0.1
			l24.6,29.8C188.9,35.5,189,35.7,189,35.9z"/>
	</g>
	<g class="st1">
		<path d="M164.4,6.1c0,0,0,0.1,0,0.1c-0.1,0.5-0.5,0.8-1,0.7L151.6,5c-0.5-0.1-0.8-0.5-0.7-1c0.1-0.5,0.5-0.8,1-0.7l11.9,1.9
			C164.1,5.3,164.4,5.7,164.4,6.1z"/>
	</g>
	<g class="st1">
		<path d="M152.6,4.2c0,0.2-0.1,0.5-0.3,0.6l-6.3,6.1c-0.3,0.3-0.9,0.3-1.2,0c-0.3-0.3-0.3-0.9,0-1.2l6.3-6.1c0.3-0.3,0.9-0.3,1.2,0
			C152.5,3.8,152.6,4,152.6,4.2z"/>
	</g>
	<g class="st1">
		<path d="M146.2,10.3v49.6c0,0.5-0.4,0.9-0.9,0.9s-0.9-0.4-0.9-0.9V10.3c0-0.5,0.4-0.9,0.9-0.9S146.2,9.8,146.2,10.3z"/>
	</g>
	<g class="st1">
		<path d="M146.2,59.8c0,0.1,0,0.2,0,0.3l-2.2,6.5c-0.2,0.7-0.8,1.2-1.5,1.3l-8.6,2c-0.5,0.1-0.9-0.2-1-0.6c-0.1-0.5,0.2-0.9,0.6-1
			l8.8-2c0.1,0,0.1,0,0.1-0.1l2.2-6.5c0.2-0.5,0.6-0.7,1.1-0.5C146,59.1,146.2,59.5,146.2,59.8z"/>
	</g>
	<g class="st1">
		<path d="M87.2,77.4c0,0.5-0.4,0.9-0.9,0.9h-9.9c-0.5,0-0.9-0.4-0.9-0.9s0.4-0.9,0.9-0.9h9.9C86.8,76.6,87.2,77,87.2,77.4z"/>
	</g>
	<g class="st1">
		<path d="M136,51.4c0,0.2,0,0.3-0.1,0.5l-7.5,11.8v11.4l0.1,0.2l3.5,11.5c0.1,0.5-0.1,0.9-0.6,1.1c-0.5,0.1-0.9-0.1-1.1-0.6
			l-3.6-12.1l0.1-12.2l7.7-12.1c0.3-0.4,0.8-0.5,1.2-0.3C135.9,50.8,136,51.1,136,51.4z"/>
	</g>
	<g class="st1">
		<path d="M136,51.4c0,0.4-0.3,0.8-0.7,0.8c-0.5,0.1-0.9-0.2-1-0.7l-4.4-22.3c-0.1-0.5,0.2-0.9,0.7-1c0.5-0.1,0.9,0.2,1,0.7
			l4.4,22.3C136,51.3,136,51.3,136,51.4z"/>
	</g>
	<g class="st1">
		<path d="M131.6,29c0,0.1,0,0.2,0,0.2c-0.1,0.5-0.6,0.7-1.1,0.6l-19.2-5.7c-0.5-0.1-0.7-0.6-0.6-1.1c0.1-0.5,0.6-0.7,1.1-0.6
			l19.2,5.7C131.4,28.3,131.6,28.7,131.6,29z"/>
	</g>
	<g class="st1">
		<path d="M112.4,23.3c0,0.5-0.4,0.8-0.8,0.9L81,25.1c-0.5,0-0.9-0.4-0.9-0.8c0,0,0,0,0,0c0-0.5,0.4-0.8,0.8-0.9l30.6-0.9
			C112,22.4,112.4,22.8,112.4,23.3C112.4,23.3,112.4,23.3,112.4,23.3z"/>
	</g>
	<g class="st1">
		<path d="M81.9,24.2c0,0.2-0.1,0.4-0.2,0.5l-8.4,10.5c-0.3,0.4-0.8,0.4-1.2,0.1c-0.4-0.3-0.4-0.8-0.1-1.2l8.4-10.5
			c0.3-0.4,0.8-0.4,1.2-0.1C81.8,23.7,81.9,23.9,81.9,24.2z"/>
	</g>
	<g class="st1">
		<path d="M73.5,34.7c0,0.1,0,0.2-0.1,0.3l-5.2,12.8c-0.2,0.4-0.7,0.7-1.1,0.5c-0.4-0.2-0.7-0.7-0.5-1.1l5.2-12.8
			c0.2-0.4,0.7-0.7,1.1-0.5C73.3,34,73.5,34.3,73.5,34.7z"/>
	</g>
	<g class="st1">
		<path d="M96.4,36.9c0,0.2,0,0.3-0.1,0.4L90,48c-0.2,0.4-0.8,0.5-1.2,0.3c-0.4-0.2-0.5-0.8-0.3-1.2l6.4-10.6
			c0.2-0.4,0.8-0.5,1.2-0.3C96.3,36.4,96.4,36.6,96.4,36.9z"/>
	</g>
	<g class="st1">
		<path d="M83.8,15.6c-0.2,0.3-0.5,0.5-0.9,0.6s-0.8,0.2-1.2,0.2c-0.5,0-0.9-0.1-1.3-0.3s-0.7-0.5-0.8-0.9s-0.3-0.9-0.3-1.4v-0.4
			c0-0.9,0.2-1.5,0.6-2s1-0.7,1.7-0.7c0.6,0,1.1,0.2,1.5,0.5s0.6,0.8,0.7,1.4h-1c-0.1-0.7-0.5-1-1.2-1c-0.4,0-0.8,0.2-1,0.5
			s-0.3,0.8-0.4,1.4v0.4c0,0.6,0.1,1.1,0.4,1.4s0.6,0.5,1.1,0.5c0.5,0,0.9-0.1,1.1-0.3v-1.1h-1.2v-0.8h2.2V15.6z"/>
		<path d="M87,14.2h-1.1v2.2h-1v-5.7h2c0.7,0,1.2,0.1,1.5,0.4s0.5,0.7,0.5,1.3c0,0.4-0.1,0.7-0.3,1c-0.2,0.3-0.4,0.5-0.8,0.6
			l1.3,2.4v0.1h-1.1L87,14.2z M85.9,13.4h1c0.3,0,0.6-0.1,0.8-0.3s0.3-0.4,0.3-0.7c0-0.3-0.1-0.5-0.3-0.7s-0.4-0.3-0.8-0.3h-1V13.4z
			"/>
		<path d="M94.5,13.7c0,0.6-0.1,1-0.3,1.5s-0.5,0.7-0.8,1s-0.8,0.3-1.2,0.3c-0.5,0-0.9-0.1-1.2-0.3s-0.6-0.5-0.8-1s-0.3-0.9-0.3-1.4
			v-0.3c0-0.6,0.1-1,0.3-1.5s0.5-0.7,0.8-1s0.8-0.3,1.2-0.3s0.9,0.1,1.2,0.3s0.6,0.5,0.8,1s0.3,0.9,0.3,1.5V13.7z M93.5,13.4
			c0-0.6-0.1-1.1-0.4-1.4s-0.6-0.5-1-0.5c-0.4,0-0.8,0.2-1,0.5s-0.4,0.8-0.4,1.4v0.3c0,0.6,0.1,1.1,0.4,1.4s0.6,0.5,1,0.5
			c0.4,0,0.8-0.2,1-0.5s0.4-0.8,0.4-1.5V13.4z"/>
		<path d="M99.9,14.9l0.9-4.3h1l-1.3,5.7h-0.9l-1.1-4.2l-1.1,4.2h-0.9l-1.3-5.7h1l0.9,4.3l1.1-4.3h0.8L99.9,14.9z"/>
		<path d="M105.5,15.6h2.6v0.8h-3.6v-5.7h1V15.6z"/>
		<path d="M112.1,15h-2.2l-0.5,1.3h-1l2.1-5.7h0.9l2.2,5.7h-1L112.1,15z M110.1,14.2h1.6l-0.8-2.4L110.1,14.2z"/>
		<path d="M114.2,16.4v-5.7h1.9c0.6,0,1.1,0.1,1.5,0.4s0.5,0.6,0.5,1.2c0,0.3-0.1,0.5-0.2,0.7s-0.3,0.4-0.6,0.5
			c0.3,0.1,0.5,0.2,0.7,0.5s0.3,0.5,0.3,0.8c0,0.5-0.2,0.9-0.5,1.2s-0.8,0.4-1.5,0.4H114.2z M115.2,13.1h1c0.3,0,0.5-0.1,0.7-0.2
			s0.3-0.3,0.3-0.6c0-0.3-0.1-0.5-0.2-0.6s-0.4-0.2-0.7-0.2h-1V13.1z M115.2,13.8v1.8h1.1c0.3,0,0.6-0.1,0.7-0.2s0.3-0.4,0.3-0.6
			c0-0.6-0.3-0.9-0.9-0.9H115.2z"/>
	</g>
</g>
<g id="Layer_4" class="st0">
</g>
<g id="Layer_3">
	<g>
		<g id="board_00000014614776836130109260000006584664646461357999_">
			<path id="boardoutline_00000082345066724213663540000016720915480706997131_" class="st2" d="M0,114.5l0-87.3
				C0,12.2,12.7,0,28.3,0l137,0c15.7,0,28.3,12.2,28.3,27.2v87.3c0,15-12.7,27.2-28.3,27.2h-137C12.7,141.7,0,129.5,0,114.5z"/>
		</g>
	</g>
	<circle class="st3" cx="164.1" cy="87.6" r="1.3"/>
	<circle class="st3" cx="153.4" cy="106.2" r="1.2"/>
	<circle class="st3" cx="146.2" cy="106.2" r="1.2"/>
	<circle class="st3" cx="139" cy="106.2" r="1.2"/>
	<g>
		<circle class="st3" cx="131.8" cy="106.2" r="1.2"/>
		<circle class="st3" cx="124.6" cy="106.2" r="1.2"/>
		<circle class="st3" cx="117.4" cy="106.2" r="1.2"/>
		<circle class="st3" cx="110.2" cy="106.2" r="1.2"/>
		<circle class="st3" cx="103" cy="106.2" r="1.2"/>
		<circle class="st3" cx="95.8" cy="106.2" r="1.2"/>
		<circle class="st3" cx="88.6" cy="106.2" r="1.2"/>
		<circle class="st3" cx="81.4" cy="106.2" r="1.2"/>
		<circle class="st3" cx="74.2" cy="106.2" r="1.2"/>
		<circle class="st3" cx="67" cy="106.2" r="1.2"/>
		<circle class="st3" cx="59.8" cy="106.2" r="1.2"/>
		<circle class="st3" cx="52.6" cy="106.2" r="1.2"/>
		<circle class="st3" cx="45.4" cy="106.2" r="1.2"/>
	</g>
	<circle class="st3" cx="124.6" cy="48.6" r="1.2"/>
	<circle class="st3" cx="117.4" cy="48.6" r="1.2"/>
	<circle class="st3" cx="110.2" cy="48.6" r="1.2"/>
	<circle class="st3" cx="103" cy="48.6" r="1.2"/>
	<circle class="st3" cx="95.8" cy="48.6" r="1.2"/>
	<circle class="st3" cx="88.6" cy="48.6" r="1.2"/>
	<circle class="st3" cx="81.4" cy="48.6" r="1.2"/>
	<circle class="st3" cx="74.2" cy="48.6" r="1.2"/>
	<circle class="st3" cx="67" cy="48.6" r="1.2"/>
	<circle class="st3" cx="59.8" cy="48.6" r="1.2"/>
	<circle class="st3" cx="52.6" cy="48.6" r="1.2"/>
	<circle class="st3" cx="45.4" cy="48.6" r="1.2"/>
	<circle class="st3" cx="156.2" cy="86.8" r="1"/>
	<circle class="st3" cx="156.2" cy="68.1" r="1"/>
	<circle class="st3" cx="164.1" cy="67.2" r="1.3"/>
	<circle class="st3" cx="164.1" cy="87.6" r="1.3"/>
	<circle class="st3" cx="152.5" cy="119.1" r="1.7"/>
	<circle class="st3" cx="166.9" cy="119.1" r="1.7"/>
	<circle class="st3" cx="139" cy="12.6" r="1.7"/>
	<circle class="st3" cx="153.4" cy="12.6" r="1.7"/>
	<circle class="st3" cx="50.7" cy="118" r="1.7"/>
	<circle class="st3" cx="65.1" cy="118" r="1.7"/>
	<circle class="st3" cx="44.2" cy="14.5" r="1.7"/>
	<circle class="st3" cx="58.6" cy="14.5" r="1.7"/>
	<circle class="st3" cx="164.2" cy="102.6" r="3.8"/>
	<circle class="st3" cx="164.2" cy="52.2" r="3.8"/>
	<circle class="st3" cx="88.6" cy="91.8" r="1.7"/>
	<circle class="st3" cx="88.6" cy="84.6" r="1.7"/>
	<circle class="st3" cx="88.6" cy="77.4" r="1.7"/>
	<circle class="st3" cx="55.4" cy="80.3" r="1.7"/>
	<circle class="st3" cx="55.4" cy="73.1" r="1.7"/>
	<circle class="st3" cx="55.4" cy="65.9" r="1.7"/>
	<circle class="st3" cx="13.3" cy="82.5" r="1.7"/>
	<circle class="st3" cx="13.3" cy="68.1" r="1.7"/>
	<circle class="st3" cx="89.1" cy="35.8" r="1.6"/>
	<circle class="st3" cx="96.3" cy="35.8" r="1.6"/>
	<circle class="st3" cx="103.5" cy="35.8" r="1.6"/>
	<circle class="st3" cx="110.7" cy="35.8" r="1.6"/>
</g>
</svg>
